<svg width="173" height="115" viewBox="0 0 173 115" fill="none" xmlns="http://www.w3.org/2000/svg">
<path opacity="0.1" d="M70.5691 102.455C52.6386 102.455 38.103 100.848 38.103 98.8652C38.103 96.8826 52.6386 95.2754 70.5691 95.2754C88.4996 95.2754 103.035 96.8826 103.035 98.8652C103.035 100.848 88.4996 102.455 70.5691 102.455Z" fill="#07185F"/>
<path opacity="0.1" d="M126.784 24.0485C126.784 24.0485 128.333 28.3172 125.135 28.7051C124.989 28.7776 124.823 28.8017 124.661 28.774C124.5 28.7464 124.352 28.6683 124.238 28.5511C124.238 28.5511 124.462 28.4769 124.255 28.0624C124.182 27.9141 124.128 27.7577 124.093 27.5965C124.044 27.3789 124.068 27.1513 124.16 26.9482C124.16 26.9482 124.302 25.5773 126.159 24.5106C126.159 24.5106 126.492 24.0314 126.608 24.0105L126.511 24.8376C126.511 24.8376 125.908 24.7444 125.525 25.0715C125.525 25.0715 126.476 24.8129 126.503 24.9612C126.503 24.9916 126.433 25.3966 126.433 25.3966C126.433 25.3966 125.383 25.2388 124.808 25.7617C124.808 25.7617 125.908 25.3016 126.406 25.5506L126.256 26.1553C126.256 26.1553 125.154 25.9347 124.479 26.5051C124.479 26.5051 125.645 26.0659 126.216 26.2865L125.989 26.8569C125.989 26.8569 124.911 26.6668 124.352 27.1402C124.352 27.1402 125.75 26.7599 125.928 26.9843C125.831 27.2067 125.707 27.4162 125.558 27.608C125.558 27.608 124.782 27.4844 124.481 27.7981C124.481 27.7981 125.442 27.6479 125.476 27.7468C125.476 27.7468 124.985 28.3362 124.578 28.5073C124.96 28.3718 125.299 28.1391 125.563 27.8323C125.589 28.0807 125.541 28.3311 125.426 28.553C125.426 28.553 125.839 28.3628 125.681 27.6878C125.681 27.6878 126.046 27.2144 126.048 27.1174C126.048 27.1174 126.297 27.7601 126.239 28.2107C126.239 28.2107 126.543 27.7392 126.113 26.9672L126.353 26.3968C126.353 26.3968 126.733 27.2277 126.706 27.6346C126.706 27.6346 126.942 27.1041 126.402 26.2485L126.554 25.6552C126.753 26.0144 126.905 26.3979 127.005 26.7961C127.005 26.7961 127.117 26.258 126.59 25.4765L126.646 25.0696C126.646 25.0696 126.914 25.5792 126.977 25.7332C127.039 25.8872 127.087 25.8815 127.087 25.8815C127.042 25.5219 126.898 25.1817 126.672 24.8985C126.672 24.8985 126.731 24.0485 126.784 24.0485Z" fill="#07185F"/>
<path d="M9.14648 75.78L7.2311 77.8012L4.19348 72.4507L4.46738 71.8499L9.14648 75.78Z" fill="#07185F"/>
<path opacity="0.2" d="M9.14648 75.78L7.2311 77.8012L4.19348 72.4507L4.46738 71.8499L9.14648 75.78Z" fill="black"/>
<path d="M143.792 71.1997C143.792 81.3532 150.748 83.5075 157.719 83.5075C164.69 83.5075 168.614 74.9511 168.614 64.7938C168.614 54.6365 162.963 46.4072 155.992 46.4072C149.021 46.4072 143.792 61.0462 143.792 71.1997Z" fill="#636780"/>
<path opacity="0.2" d="M143.792 71.1997C143.792 81.3532 150.748 83.5075 157.719 83.5075C164.69 83.5075 168.614 74.9511 168.614 64.7938C168.614 54.6365 162.963 46.4072 155.992 46.4072C149.021 46.4072 143.792 61.0462 143.792 71.1997Z" fill="black"/>
<path d="M148.612 65.121C148.612 75.2745 153.09 83.5075 158.613 83.5075C164.137 83.5075 168.833 75.2745 168.833 65.121C168.833 63.7177 169.05 62.3525 168.888 61.0406C167.878 52.8512 163.372 46.7363 158.617 46.7363C153.09 46.7363 148.612 54.9675 148.612 65.121Z" fill="#636780"/>
<path d="M149.609 20.3657C149.609 20.3657 158.376 30.1922 161.16 38.3815L85.4585 46.7363L44.9067 38.3815C44.9067 38.3815 60.9677 19.1431 65.3081 18.3996C69.6486 17.6562 149.609 20.3657 149.609 20.3657Z" fill="#07185F"/>
<path opacity="0.4" d="M149.609 20.3657C149.609 20.3657 158.376 30.1922 161.16 38.3815L85.4585 46.7363L44.9067 38.3815C44.9067 38.3815 60.9677 19.1431 65.3081 18.3996C69.6486 17.6562 149.609 20.3657 149.609 20.3657Z" fill="black"/>
<path d="M94.0615 45.3634L81.9112 79.4405V70.8157L78.5294 61.1603L69.1598 57.0134L57.2796 62.4019L53.0304 63.7291L52.6595 55.8687L66.7842 48.9077L73.3596 45.7532L88.4105 44.4413L92.5627 43.6997L94.0615 45.3634Z" fill="#07185F"/>
<path d="M88.6423 48.9076L77.5876 50.1758C78.0898 45.7627 74.8125 45.7627 74.8125 45.7627L85.871 43.8499H91.0332" fill="#07185F"/>
<path d="M81.9113 84.6806H74.0749L51.3815 83.92C51.3815 83.92 50.8908 88.2457 44.9145 87.2285C44.9145 87.2285 41.624 87.4395 41.2702 85.6522C40.9164 83.8649 48.7643 67.3474 48.7643 67.3474L59.4633 59.3615L69.1638 57.0076L76.1272 59.0554L80.5513 66.0906L83.3359 75.7212L81.9113 84.6806Z" fill="#636780"/>
<path opacity="0.2" d="M81.9113 84.6806H74.0749L51.3815 83.92C51.3815 83.92 50.8908 88.2457 44.9145 87.2285C44.9145 87.2285 41.624 87.4395 41.2702 85.6522C40.9164 83.8649 48.7643 67.3474 48.7643 67.3474L59.4633 59.3615L69.1638 57.0076L76.1272 59.0554L80.5513 66.0906L83.3359 75.7212L81.9113 84.6806Z" fill="black"/>
<path d="M148.083 22.7178C149.206 23.6343 152.751 26.9218 155.705 33.8733C155.807 34.1123 155.853 34.3718 155.838 34.6314C155.823 34.891 155.748 35.1436 155.619 35.3693C155.49 35.5951 155.311 35.7878 155.094 35.9324C154.878 36.077 154.631 36.1695 154.373 36.2026L136.574 38.509C135.918 38.5944 135.253 38.4349 134.707 38.0609C134.161 37.6869 133.772 37.1248 133.614 36.4821L130.486 23.7217C130.439 23.532 130.436 23.3341 130.478 23.1433C130.52 22.9526 130.606 22.774 130.728 22.6214C130.85 22.4689 131.006 22.3464 131.183 22.2636C131.359 22.1807 131.553 22.1397 131.749 22.1436L147.302 22.4326C147.587 22.4365 147.863 22.537 148.083 22.7178Z" fill="#07185F"/>
<path opacity="0.2" d="M148.083 22.7178C149.206 23.6343 152.751 26.9218 155.705 33.8733C155.807 34.1123 155.853 34.3718 155.838 34.6314C155.823 34.891 155.748 35.1436 155.619 35.3693C155.49 35.5951 155.311 35.7878 155.094 35.9324C154.878 36.077 154.631 36.1695 154.373 36.2026L136.574 38.509C135.918 38.5944 135.253 38.4349 134.707 38.0609C134.161 37.6869 133.772 37.1248 133.614 36.4821L130.486 23.7217C130.439 23.532 130.436 23.3341 130.478 23.1433C130.52 22.9526 130.606 22.774 130.728 22.6214C130.85 22.4689 131.006 22.3464 131.183 22.2636C131.359 22.1807 131.553 22.1397 131.749 22.1436L147.302 22.4326C147.587 22.4365 147.863 22.537 148.083 22.7178Z" fill="white"/>
<path d="M122.218 22.1148L102.174 21.9247C100.73 21.9114 99.4367 22.8754 98.9498 24.3471L92.6996 38.5373C92.1461 40.1991 93.3425 41.9294 94.9821 41.8344L124.239 39.9082C126.666 39.7675 128.384 37.2938 127.823 34.744L125.702 25.1096C125.32 23.3679 123.882 22.13 122.218 22.1148Z" fill="#07185F"/>
<path opacity="0.2" d="M122.218 22.1148L102.174 21.9247C100.73 21.9114 99.4367 22.8754 98.9498 24.3471L92.6996 38.5373C92.1461 40.1991 93.3425 41.9294 94.9821 41.8344L124.239 39.9082C126.666 39.7675 128.384 37.2938 127.823 34.744L125.702 25.1096C125.32 23.3679 123.882 22.13 122.218 22.1148Z" fill="white"/>
<path d="M91.0611 21.8868C85.5813 21.788 71.0591 21.3734 63.8351 19.7097C63.8351 19.7097 51.4375 29.0456 47.7228 36.0884C47.7228 36.0884 67.0477 40.7906 80.3944 41.4276C81.3841 41.4732 82.3655 41.2273 83.2166 40.7202C84.0677 40.2132 84.751 39.4674 85.1818 38.5755L92.2784 23.8738C92.3806 23.6651 92.4284 23.434 92.4174 23.2019C92.4064 22.9698 92.337 22.7442 92.2156 22.5461C92.0943 22.348 91.9248 22.1836 91.723 22.0684C91.5212 21.9532 91.2935 21.8907 91.0611 21.8868Z" fill="#07185F"/>
<path opacity="0.2" d="M91.0611 21.8868C85.5813 21.788 71.0591 21.3734 63.8351 19.7097C63.8351 19.7097 51.4375 29.0456 47.7228 36.0884C47.7228 36.0884 67.0477 40.7906 80.3944 41.4276C81.3841 41.4732 82.3655 41.2273 83.2166 40.7202C84.0677 40.2132 84.751 39.4674 85.1818 38.5755L92.2784 23.8738C92.3806 23.6651 92.4284 23.434 92.4174 23.2019C92.4064 22.9698 92.337 22.7442 92.2156 22.5461C92.0943 22.348 91.9248 22.1836 91.723 22.0684C91.5212 21.9532 91.2935 21.8907 91.0611 21.8868Z" fill="white"/>
<path opacity="0.1" d="M84.112 24.0144C81.8295 23.9745 77.3768 23.8566 73.0288 23.5315C69.8267 23.2874 66.6115 23.7867 63.6344 24.9903C60.6573 26.1938 57.9988 28.0691 55.8666 30.4697L55.7258 30.6294C55.4171 30.985 55.2064 31.415 55.1147 31.8769C55.023 32.3387 55.0533 32.8165 55.2027 33.2631C55.3521 33.7097 55.6154 34.1095 55.9667 34.4233C56.318 34.737 56.745 34.9538 57.2056 35.0521C62.0026 36.0808 70.1738 37.6513 76.481 37.9556C77.1909 37.9914 77.8956 37.8171 78.507 37.4545C79.1183 37.092 79.6091 36.5573 79.918 35.9173L84.9812 25.4272C85.053 25.2784 85.0862 25.114 85.0778 24.949C85.0694 24.7841 85.0196 24.6239 84.9331 24.4832C84.8465 24.3425 84.7259 24.2258 84.5824 24.1439C84.439 24.062 84.2772 24.0175 84.112 24.0144Z" fill="white"/>
<path d="M81.9108 79.4405V84.6807L139.859 75.8373C142.699 74.8543 144.393 75.457 144.393 75.457C146.485 74.436 148.007 70.4525 148.051 70.3232L146.957 67.1574L155.84 52.4709L167.657 52.9615C165.799 38.1096 160.448 37.4004 160.448 37.4004L91.0236 43.8424L81.9108 79.4405Z" fill="#07185F"/>
<path opacity="0.1" d="M94.401 48.1603C94.8556 48.6585 95.6868 49.111 97.2199 49.0692C99.5689 49.0122 100.014 47.0081 100.073 45.8121C100.088 45.5191 100.079 45.2254 100.048 44.9336L96.9707 43.9924L96.3411 44.58L94.4828 46.3198C94.2304 46.5545 94.0804 46.879 94.0651 47.2233C94.0498 47.5676 94.1705 47.9041 94.401 48.1603Z" fill="black"/>
<path d="M94.401 47.997C94.8556 48.4952 95.6868 48.9477 97.2199 48.9059C99.5689 48.8488 100.014 46.8448 100.073 45.6488C100.088 45.3557 100.079 45.062 100.048 44.7703L96.9707 43.8291L96.3411 44.4166L94.4828 46.1564C94.2304 46.3912 94.0804 46.7157 94.0651 47.06C94.0498 47.4043 94.1705 47.7408 94.401 47.997Z" fill="#DCE0ED"/>
<path opacity="0.1" d="M96.3392 44.4166C96.7329 45.4186 97.897 45.6905 97.897 45.6905L100.071 45.6487C100.086 45.3557 100.078 45.062 100.046 44.7703L96.9688 43.8291L96.3392 44.4166Z" fill="black"/>
<path d="M104.182 36.7443C104.182 36.7443 109.097 37.4021 107.787 41.8438C106.794 45.2093 104.578 45.4356 103.562 45.35C102.971 45.2971 102.377 45.2755 101.784 45.2854L97.8978 45.3633C97.8978 45.3633 95.7029 44.8518 96.3172 42.6405C96.9316 40.4292 99.7581 36.3754 104.182 36.7443Z" fill="#F0F0F4"/>
<path opacity="0.2" d="M130.794 50.1757C129.542 50.1757 128.527 48.8554 128.527 47.2267C128.527 45.5979 129.542 44.2776 130.794 44.2776C132.046 44.2776 133.062 45.5979 133.062 47.2267C133.062 48.8554 132.046 50.1757 130.794 50.1757Z" fill="black"/>
<path opacity="0.1" d="M126.892 46.6931L133.345 46.0048C133.893 45.9463 134.385 46.3433 134.444 46.8915L134.444 46.8934C134.503 47.4416 134.105 47.9335 133.557 47.9919L127.104 48.6802C126.555 48.7387 126.063 48.3417 126.005 47.7935L126.005 47.7916C125.946 47.2434 126.343 46.7516 126.892 46.6931Z" fill="black"/>
<path d="M126.892 46.5285L133.345 45.8403C133.893 45.7818 134.385 46.1788 134.444 46.727L134.444 46.7288C134.503 47.277 134.105 47.7689 133.557 47.8273L127.104 48.5156C126.555 48.5741 126.063 48.1771 126.005 47.6289L126.005 47.627C125.946 47.0788 126.343 46.587 126.892 46.5285Z" fill="#F0F0F4"/>
<path opacity="0.1" d="M168.369 66.4728C168.369 66.4728 172.438 62.4589 167.496 52.7979C167.496 52.7979 161.161 43.2148 151.329 53.6991C151.329 53.6991 145.676 60.0042 144.038 70.0778L147.888 70.1596C147.888 70.1596 151.576 52.3054 162.389 53.2067C162.389 53.2048 170.254 54.5966 168.369 66.4728Z" fill="black"/>
<path opacity="0.1" d="M168.529 66.9634C168.529 66.9634 172.599 62.9514 167.656 53.2865C167.656 53.2865 161.32 43.7053 151.488 54.1878C151.488 54.1878 145.835 60.4948 144.196 70.5665L148.048 70.6483C148.048 70.6483 151.739 52.7979 162.553 53.6972C162.553 53.6972 170.418 55.0891 168.529 66.9634Z" fill="black"/>
<path d="M168.529 66.6364C168.529 66.6364 172.599 62.6226 167.656 52.9596C167.656 52.9596 161.32 43.3784 151.488 53.8609C151.488 53.8609 145.835 60.1659 144.196 70.2396L148.048 70.3214C148.048 70.3214 151.739 52.4691 162.553 53.3684C162.553 53.3684 170.418 54.7622 168.529 66.6364Z" fill="#07185F"/>
<path opacity="0.2" d="M168.529 66.6364C168.529 66.6364 172.599 62.6226 167.656 52.9596C167.656 52.9596 161.32 43.3784 151.488 53.8609C151.488 53.8609 145.835 60.1659 144.196 70.2396L148.048 70.3214C148.048 70.3214 151.739 52.4691 162.553 53.3684C162.553 53.3684 170.418 54.7622 168.529 66.6364Z" fill="black"/>
<path opacity="0.1" d="M81.9117 79.2768V84.5171L139.86 75.6718C142.699 74.6906 144.394 75.2915 144.394 75.2915C146.486 74.2704 148.008 70.287 148.052 70.1577L144.2 70.0759L133.058 71.6313L92.5613 77.4458C92.5613 77.4458 85.3792 78.2653 84.9702 78.5866C84.5613 78.908 81.9117 79.2768 81.9117 79.2768Z" fill="black"/>
<path d="M81.9117 79.4405V84.6807L139.86 75.8373C142.699 74.8543 144.394 75.457 144.394 75.457C146.486 74.436 148.008 70.4525 148.052 70.3232L144.2 70.2415L133.058 71.7968L92.5613 77.6113C92.5613 77.6113 85.3792 78.4308 84.9702 78.7521C84.5613 79.0735 81.9117 79.4405 81.9117 79.4405Z" fill="#07185F"/>
<path opacity="0.2" d="M81.9117 79.4405V84.6807L139.86 75.8373C142.699 74.8543 144.394 75.457 144.394 75.457C146.486 74.436 148.008 70.4525 148.052 70.3232L144.2 70.2415L133.058 71.7968L92.5613 77.6113C92.5613 77.6113 85.3792 78.4308 84.9702 78.7521C84.5613 79.0735 81.9117 79.4405 81.9117 79.4405Z" fill="black"/>
<path opacity="0.2" d="M133.139 71.8121C136.74 60.2553 136.548 52.1953 135.753 47.4741C134.889 42.3403 133.143 39.9198 133.126 39.897L132.995 39.9939C133.012 40.0168 134.737 42.4201 135.593 47.5159C136.384 52.2276 136.575 60.2458 132.982 71.7721L133.139 71.8121Z" fill="black"/>
<path d="M3.15659 66.7485C3.01203 67.2866 2.67538 68.7735 3.20985 69.1747C3.41338 69.3268 3.59026 69.7014 3.7272 70.1463C3.94149 70.9013 4.09666 71.6718 4.19131 72.4508L9.76431 78.6741L19.1852 82.3609L41.715 83.9163L55.3146 61.8048L85.8711 43.8403L77.5287 43.3783C69.1844 42.9144 45.4981 37.6741 45.4981 37.6741L18.704 43.5913C14.3704 44.5414 10.5422 47.0618 7.95737 50.6664C4.69535 55.2298 3.20224 60.1734 3.20224 60.1734C2.799 60.6564 2.64304 61.4474 2.62021 62.3144C2.58978 63.7271 2.91313 65.3357 3.09003 66.1039C3.15659 66.391 3.20224 66.5622 3.20224 66.5622C3.20224 66.5622 3.18703 66.6268 3.15659 66.7485Z" fill="#07185F"/>
<path opacity="0.1" d="M84.9714 78.4289C84.9714 78.4289 86.6091 60.9112 74.3199 56.1577C74.3199 56.1577 57.0341 48.8639 46.8752 68.6841L41.715 79.988C41.715 79.988 40.2409 82.7717 36.2256 82.6899C36.2256 82.6899 17.3021 82.1195 7.31446 75.7289L4.20081 72.1162C4.20081 72.1162 5.75668 77.1929 7.31446 78.3395C7.31446 78.3395 13.4581 85.5458 35.8243 86.8578C35.8243 86.8578 44.9713 87.8389 47.7293 79.159C47.7293 79.159 51.4706 59.5042 70.4778 59.6677C70.4778 59.6677 81.6447 59.8863 81.9186 79.1038L84.9714 78.4289Z" fill="black"/>
<path d="M84.9714 78.7559C84.9714 78.7559 86.6091 61.2401 74.3199 56.4847C74.3199 56.4847 57.0341 49.1928 46.8752 69.0112L41.715 80.3132C41.715 80.3132 40.2409 83.0968 36.2256 83.015C36.2256 83.015 17.3021 82.4446 7.31445 76.054L4.19128 72.4508C4.19128 72.4508 5.74716 77.5276 7.30494 78.6741C7.30494 78.6741 13.4486 85.8824 35.8148 87.1924C35.8148 87.1924 44.9618 88.1755 47.7197 79.4936C47.7197 79.4936 51.4611 59.8388 70.4683 60.0023C70.4683 60.0023 81.6352 60.2229 81.9091 79.4404L84.9714 78.7559Z" fill="#07185F"/>
<path opacity="0.2" d="M84.9714 78.7559C84.9714 78.7559 86.6091 61.2401 74.3199 56.4847C74.3199 56.4847 57.0341 49.1928 46.8752 69.0112L41.715 80.3132C41.715 80.3132 40.2409 83.0968 36.2256 83.015C36.2256 83.015 17.3021 82.4446 7.31445 76.054L4.19128 72.4508C4.19128 72.4508 5.74716 77.5276 7.30494 78.6741C7.30494 78.6741 13.4486 85.8824 35.8148 87.1924C35.8148 87.1924 44.9618 88.1755 47.7197 79.4936C47.7197 79.4936 51.4611 59.8388 70.4683 60.0023C70.4683 60.0023 81.6352 60.2229 81.9091 79.4404L84.9714 78.7559Z" fill="black"/>
<path opacity="0.2" d="M87.8096 78.2272L88.5495 53.8569C88.4498 52.2068 88.5135 50.5509 88.7398 48.9133C88.7626 48.8106 89.3503 46.297 90.1359 44.869C90.6399 44.1332 91.0679 43.9088 91.0869 43.905L91.5225 43.7871L91.0355 43.751C90.6989 43.8156 90.3793 44.1655 90.0845 44.6541C89.5481 45.39 88.9166 46.6829 88.5838 48.8867C88.3564 50.5299 88.2926 52.1916 88.3936 53.8474L87.6537 78.212L87.8096 78.2272Z" fill="black"/>
<path opacity="0.2" d="M72.7663 60.1526L72.9261 60.1792C72.9261 60.1602 73.2666 58.139 74.3888 56.5323C76.7416 53.1649 77.5101 50.8813 77.5976 49.3564C77.6403 48.8279 77.5756 48.2962 77.4074 47.7934C77.0403 46.7647 76.0569 46.0042 74.7217 45.6277L74.4363 45.6752C75.7202 46.0365 76.909 46.8731 77.2609 47.8485C77.4288 48.3442 77.4936 48.869 77.4511 49.3906C77.356 50.8832 76.5857 53.1231 74.2709 56.441C73.1106 58.0762 72.7682 60.1317 72.7663 60.1526Z" fill="black"/>
<path opacity="0.2" d="M20.2927 52.2104C30.7312 45.9833 52.8292 40.1916 53.0518 40.1346L53.0099 39.9749C52.7874 40.0338 30.6665 45.8312 20.209 52.0697L20.2927 52.2104Z" fill="black"/>
<path opacity="0.2" d="M5.11601 60.8408C9.05706 53.9102 19.6686 48.1965 27.8779 44.6218C33.4308 42.2209 39.1261 40.1635 44.9316 38.4613L44.8879 38.3035C39.0751 40.0073 33.3727 42.0673 27.8132 44.4716C19.5811 48.0558 8.93723 53.7885 4.97336 60.759L5.11601 60.8408Z" fill="black"/>
<path opacity="0.1" d="M4.86815 58.8605C4.03591 58.2336 5.5209 54.8604 8.18496 51.3263C10.849 47.7922 13.6833 45.4354 14.5156 46.0624C15.3478 46.6893 13.8628 50.0625 11.1988 53.5966C8.5347 57.1307 5.70038 59.4875 4.86815 58.8605Z" fill="black"/>
<path d="M4.8663 58.5329C4.03407 57.906 5.51905 54.5328 8.18308 50.9987C10.8471 47.4646 13.6814 45.1078 14.5136 45.7347C15.3458 46.3616 13.8609 49.7348 11.1968 53.269C8.53281 56.8031 5.69853 59.1598 4.8663 58.5329Z" fill="#DCE0ED"/>
<path opacity="0.1" d="M5.48926 57.4353C4.94897 57.0283 6.29447 54.3324 8.4945 51.4139C10.6945 48.4954 12.916 46.4594 13.4563 46.8663C13.9966 47.2733 12.6511 49.9692 10.451 52.8878C8.25101 55.8063 6.02954 57.8423 5.48926 57.4353Z" fill="black"/>
<path d="M5.48934 57.2725C4.94906 56.8655 6.29454 54.1696 8.49456 51.2511C10.6946 48.3325 12.916 46.2965 13.4563 46.7035C13.9966 47.1105 12.6511 49.8064 10.4511 52.7249C8.25107 55.6435 6.02962 57.6795 5.48934 57.2725Z" fill="#F0F0F4"/>
<path opacity="0.1" d="M29.3871 64.7121C29.3871 64.7121 28.8545 60.6982 25.699 59.797C25.699 59.797 14.9676 56.6939 12.6319 56.6483C12.6319 56.6483 10.2163 55.9086 8.61857 57.7092L6.9809 59.9206C6.9809 59.9206 5.83967 61.7231 8.3732 62.0501C8.3732 62.0501 21.3433 66.8036 26.9676 67.298C27.2873 67.3269 27.6049 67.3751 27.9187 67.4425C28.7403 67.6136 30.4655 67.663 29.3871 64.7121Z" fill="black"/>
<path d="M29.221 64.5485C29.221 64.5485 28.6884 60.5346 25.5348 59.6333C25.5348 59.6333 14.8035 56.5302 12.4678 56.4846C12.4678 56.4846 10.0522 55.743 8.45443 57.5456L6.81486 59.7569C6.81486 59.7569 5.67364 61.5575 8.20907 61.8865C8.20907 61.8865 21.1772 66.64 26.8016 67.1344C27.1212 67.1632 27.4388 67.2115 27.7526 67.2789C28.5762 67.45 30.3014 67.4995 29.221 64.5485Z" fill="#F0F0F4"/>
<path opacity="0.1" d="M28.0911 64.2062C28.0911 64.2062 27.5946 60.7742 24.6674 60.0041C24.6674 60.0041 14.6892 57.3421 12.519 57.3098C12.519 57.3098 10.2727 56.6767 8.78716 58.2168L7.26553 60.1087C7.26553 60.1087 6.20038 61.6507 8.56082 61.9303C8.56082 61.9303 20.6179 65.9993 25.8466 66.4195C26.141 66.4445 26.4337 66.4858 26.7235 66.5431C27.49 66.6781 29.0934 66.7275 28.0911 64.2062Z" fill="black"/>
<path d="M27.926 64.0391C27.926 64.0391 27.4315 60.6166 24.5023 59.837C24.5023 59.837 14.5242 57.1751 12.354 57.1427C12.354 57.1427 10.1077 56.5077 8.62217 58.0497L7.10053 59.9511C7.10053 59.9511 6.03539 61.4913 8.39582 61.7727C8.39582 61.7727 20.4548 65.8417 25.6835 66.2619C25.9766 66.2869 26.268 66.3282 26.5565 66.3855C27.3269 66.5224 28.9303 66.5642 27.926 64.0391Z" fill="#636780"/>
<path d="M27.0836 61.9247L27.1045 61.7612C26.958 61.7441 12.3845 59.9339 9.248 57.5134L9.14719 57.6427C12.3198 60.086 26.4825 61.8467 27.0836 61.9247Z" fill="#F0F0F4"/>
<path d="M27.8494 63.8108L27.8779 63.6492C27.7182 63.6207 11.6858 60.6526 8.22788 58.5154L8.1404 58.6542C11.6249 60.8085 27.6877 63.7804 27.8494 63.8108Z" fill="#F0F0F4"/>
<path d="M28.2274 65.3642L28.2578 65.2045C28.0676 65.1684 9.61773 61.6869 7.33527 59.6467L7.22685 59.7684C9.53404 61.839 27.4666 65.2216 28.2274 65.3642Z" fill="#F0F0F4"/>
<path opacity="0.1" d="M9.02651 65.448C9.02651 65.448 15.9804 68.3477 23.2919 69.6482C23.9386 69.7649 24.5783 69.9094 25.2111 70.0818C25.9529 70.2833 27.0066 70.5115 27.5791 70.3632C28.5206 70.116 29.0418 71.2625 28.0242 72.1638L27.9595 72.2209C27.5918 72.5443 27.1625 72.7901 26.6974 72.9437C26.2323 73.0972 25.741 73.1553 25.2529 73.1145L23.6875 72.9833C23.6875 72.9833 10.9875 70.1996 7.44591 68.0282C7.44591 68.0282 5.82918 66.9197 5.70554 65.6724C5.58191 64.425 5.43545 63.442 6.71743 64.1798C7.99942 64.9175 9.02651 65.448 9.02651 65.448Z" fill="black"/>
<path d="M8.87056 65.2881C9.12924 65.3946 15.9557 68.2087 23.136 69.4845C23.7827 69.5999 24.4224 69.7444 25.0551 69.918C25.795 70.1196 26.8507 70.3478 27.4232 70.1995C28.3742 69.9523 28.8859 71.0988 27.8683 72.0001L27.8378 72.0267C27.4595 72.3615 27.0171 72.6162 26.5375 72.7753C26.058 72.9345 25.5511 72.9948 25.0475 72.9527L23.5411 72.8272H23.5164C23.0808 72.7321 10.7726 70.0112 7.29186 67.8835H7.27854C7.17013 67.8056 5.6637 66.7332 5.54578 65.5315C5.42214 64.2842 5.27378 63.3011 6.55767 64.0389C7.77689 64.7386 8.76406 65.2558 8.85535 65.3033L8.87056 65.2881Z" fill="#F0F0F4"/>
<path opacity="0.1" d="M9.79913 66.2047C9.79913 66.2047 15.5053 68.5777 21.6318 69.9258C22.2405 70.0589 22.8434 70.2148 23.4426 70.3878C24.0417 70.5608 24.8976 70.7681 25.3731 70.7072C26.1872 70.5989 26.5752 71.4108 25.6622 71.9565L25.6337 71.9736C24.9427 72.3862 24.1312 72.5499 23.3341 72.4375L21.9228 72.2474C21.9228 72.2474 11.2352 69.5588 8.32504 67.8627C8.32504 67.8627 6.99361 67.009 6.95937 66.1515C6.92513 65.2939 6.84144 64.6303 7.89708 65.2007C8.95272 65.7712 9.79913 66.2047 9.79913 66.2047Z" fill="black"/>
<path d="M9.63738 66.0412C9.75911 66.0925 15.4082 68.4274 21.4662 69.7622C22.0749 69.8953 22.6797 70.0513 23.2789 70.2243C23.878 70.3973 24.732 70.6046 25.2095 70.5437C26.0235 70.4354 26.4116 71.2454 25.4967 71.793C24.7881 72.2167 23.9558 72.3851 23.1381 72.2702L21.7649 72.0801C21.5442 72.0249 11.0563 69.3763 8.1728 67.7068C8.12715 67.6764 6.84137 66.8379 6.80903 65.9955C6.7767 65.1532 6.6911 64.4649 7.74674 65.0448C8.80238 65.6248 9.60124 66.026 9.64879 66.0488L9.63738 66.0412Z" fill="#636780"/>
<path opacity="0.1" d="M32.9036 73.0721C32.8442 71.8844 33.5089 70.886 34.3881 70.842C35.2674 70.7981 36.0283 71.7253 36.0877 72.913C36.1472 74.1007 35.4825 75.0991 34.6033 75.1431C33.724 75.187 32.9631 74.2598 32.9036 73.0721Z" fill="black"/>
<path d="M32.9503 73.0619C32.8912 71.8757 33.5552 70.8787 34.4334 70.835C35.3115 70.7913 36.0713 71.7174 36.1303 72.9037C36.1894 74.0899 35.5254 75.0869 34.6473 75.1306C33.7691 75.1743 33.0094 74.2482 32.9503 73.0619Z" fill="#F0F0F4"/>
<path opacity="0.1" d="M25.1416 74.6204C25.1416 74.6204 33.4821 75.8905 35.6942 76.0141C37.9062 76.1377 38.2391 77.3641 38.2391 77.3641C38.2391 77.3641 38.7717 80.4767 35.6999 79.5755L24.805 78.3472C24.805 78.3472 23.329 78.389 23.329 76.3811V75.9305C23.3246 75.6784 23.2991 75.4272 23.2529 75.1794C23.1939 74.8657 23.3556 74.3561 25.1416 74.6204Z" fill="black"/>
<path d="M24.9774 74.4568C24.9774 74.4568 33.3179 75.727 35.53 75.8487C37.742 75.9704 38.0692 77.2006 38.0692 77.2006C38.0692 77.2006 38.6018 80.3132 35.53 79.4119L24.6331 78.1836C24.6331 78.1836 23.159 78.2254 23.159 76.2175V75.7669C23.1546 75.5149 23.1292 75.2636 23.0829 75.0158C23.0221 74.7021 23.1914 74.1925 24.9774 74.4568Z" fill="#F0F0F4"/>
<path d="M3.21097 69.1747C3.41449 69.3269 3.59138 69.7014 3.72833 70.1464L6.42926 72.0592C6.4622 72.0825 6.50089 72.0963 6.54113 72.0991C6.58137 72.102 6.62163 72.0937 6.65751 72.0753C6.6934 72.0569 6.72355 72.029 6.74467 71.9946C6.7658 71.9603 6.7771 71.9208 6.77734 71.8804V69.8726C6.77749 69.5847 6.70311 69.3018 6.56146 69.0512C6.4198 68.8007 6.21569 68.591 5.96897 68.4427L3.15771 66.7485C3.01315 67.2866 2.67078 68.7697 3.21097 69.1747Z" fill="#F0F0F4"/>
<path d="M22.3254 74.7249L22.4509 76.7556C22.4668 76.9579 22.4371 77.1612 22.3639 77.3505C22.2908 77.5398 22.176 77.7103 22.0282 77.8494C21.8803 77.9884 21.7031 78.0925 21.5096 78.154C21.3161 78.2154 21.1113 78.2327 20.9102 78.2044C16.3106 77.471 11.8889 75.8832 7.87365 73.5232L7.51797 69.3743C7.50766 69.2731 7.52399 69.171 7.56534 69.078C7.60668 68.9851 7.67161 68.9045 7.75368 68.8444C7.83576 68.7842 7.93213 68.7466 8.03324 68.7351C8.13436 68.7237 8.23671 68.7389 8.33015 68.7792C10.6126 69.7964 16.7315 72.4032 20.6154 72.9014C21.0673 72.961 21.4846 73.1753 21.7963 73.5077C22.1081 73.8401 22.295 74.2702 22.3254 74.7249Z" fill="#636780"/>
<path d="M21.0703 73.679V76.9799C21.0703 76.9799 10.9114 74.5803 8.65941 72.9622V69.8306C12.6154 71.6368 16.7862 72.9301 21.0703 73.679Z" fill="#07185F"/>
<path d="M3.26125 66.2616C3.77671 66.2255 4.18945 65.3413 4.18945 64.2594C4.18945 63.1776 3.75959 62.2554 3.23843 62.2554C3.15491 62.2591 3.07309 62.2802 2.99812 62.3172C2.92315 62.3542 2.85667 62.4063 2.80286 62.4702C2.76102 63.883 3.08436 65.4915 3.26125 66.2616Z" fill="#07185F"/>
<path d="M3.09811 66.0963C3.61357 66.0621 4.02441 65.178 4.02441 64.0961C4.02441 63.0142 3.59645 62.0901 3.07338 62.0901C2.98951 62.0944 2.90742 62.1159 2.83218 62.1532C2.75693 62.1904 2.69014 62.2427 2.63591 62.3068C2.59787 63.7196 2.92122 65.3282 3.09811 66.0963Z" fill="#F0F0F4"/>
<path d="M49.8255 80.0869C49.8255 98.0837 57.4337 98.4735 67.3567 98.4735C75.2844 98.4735 78.5293 90.2423 78.5293 80.0869C78.5293 69.9315 75.9825 61.7231 68.0566 61.7231C60.1308 61.7231 49.8255 69.9334 49.8255 80.0869Z" fill="#636780"/>
<path opacity="0.2" d="M49.8255 80.0869C49.8255 98.0837 57.4337 98.4735 67.3567 98.4735C75.2844 98.4735 78.5293 90.2423 78.5293 80.0869C78.5293 69.9315 75.9825 61.7231 68.0566 61.7231C60.1308 61.7231 49.8255 69.9334 49.8255 80.0869Z" fill="black"/>
<path d="M68.5283 98.4734C63.005 98.4734 58.5274 90.2414 58.5274 80.0868C58.5274 69.9321 63.005 61.7002 68.5283 61.7002C74.0517 61.7002 78.5293 69.9321 78.5293 80.0868C78.5293 90.2414 74.0517 98.4734 68.5283 98.4734Z" fill="#636780"/>
<path d="M154.224 69.1746C154.224 74.6887 155.821 79.1114 159.14 79.1114C162.459 79.1114 166.404 74.6374 166.404 69.1195C166.404 63.6016 165.025 58.7473 161.706 58.7473C158.387 58.7473 154.224 63.6568 154.224 69.1746Z" fill="#F0F0F4"/>
<path d="M154.225 68.9599C154.225 69.3782 154.237 69.7889 154.26 70.192C154.307 71.2521 154.462 72.3046 154.724 73.3331C155.262 75.3638 156.245 76.7747 157.679 77.0428C157.848 77.0736 158.019 77.0889 158.191 77.0884C158.949 77.0639 159.685 76.8252 160.314 76.4001C161.681 75.5292 162.942 73.9035 163.583 71.8709C163.823 71.1242 163.971 70.3509 164.023 69.5683C164.038 69.3554 164.046 69.1386 164.046 68.9219C164.063 67.4198 163.913 65.9206 163.599 64.4517C163.42 63.5572 163.093 62.6988 162.632 61.9114C162.047 60.9892 161.269 60.4397 160.272 60.4397C159.526 60.4702 158.805 60.7137 158.193 61.1413C157.279 61.7639 156.502 62.5669 155.91 63.501C154.835 65.1205 154.25 67.016 154.225 68.9599Z" fill="#636780"/>
<path d="M154.263 70.1996C154.31 71.257 154.464 72.3069 154.724 73.3331C154.792 73.2552 156.671 71.0838 158.083 72.4775C159.119 73.4986 158.246 75.824 157.679 77.0409C157.848 77.0717 158.019 77.087 158.191 77.0865C158.949 77.062 159.685 76.8233 160.314 76.3982V76.2423C160.314 76.2423 159.479 73.6412 161.706 72.0383C161.706 72.0383 162.788 71.6085 163.593 71.8671C163.833 71.1204 163.98 70.3471 164.032 69.5645C163.842 69.4143 162.539 68.2982 163.072 66.1953C163.216 65.6026 163.395 65.0191 163.608 64.4479C163.426 63.5542 163.096 62.697 162.632 61.9114C162.632 61.9114 162.204 64.233 160.567 64.3718C158.929 64.5106 158.214 61.2307 158.193 61.1394C157.279 61.762 156.502 62.565 155.91 63.4991C155.91 63.4991 158.526 64.5867 157.763 67.4806C157.204 69.5303 155.309 70.0646 154.263 70.1996Z" fill="#F0F0F4"/>
<path d="M159.523 70.611C158.851 70.516 158.44 69.4951 158.605 68.3307C158.77 67.1664 159.448 66.2995 160.12 66.3944C160.791 66.4894 161.202 67.5103 161.038 68.6747C160.873 69.839 160.195 70.7059 159.523 70.611Z" fill="#636780"/>
<path d="M66.7836 80.8551C66.7836 87.4662 68.1931 92.7616 71.1203 92.7616C74.0476 92.7616 77.5283 87.4016 77.5283 80.7828C77.5283 74.164 76.311 68.3552 73.3838 68.3552C70.4565 68.3552 66.7836 74.2439 66.7836 80.8551Z" fill="#F0F0F4"/>
<path d="M66.7842 80.606C66.7842 81.113 66.7943 81.6055 66.8146 82.0834C66.8568 83.3443 66.9941 84.6003 67.2254 85.8405C67.6991 88.2744 68.5569 89.9628 69.8331 90.286C69.9808 90.3213 70.1321 90.3391 70.2839 90.3393C70.8964 90.3393 71.5393 90.0465 72.1555 89.5141C73.3691 88.4702 74.476 86.5117 75.0486 84.0855C75.2584 83.1793 75.3857 82.2558 75.429 81.3266C75.4423 81.0718 75.4499 80.8132 75.4499 80.5508C75.4658 78.7582 75.3335 76.9673 75.0543 75.1965C74.8998 74.1487 74.6082 73.1259 74.1869 72.1542C73.6696 71.0495 72.9829 70.3916 72.1042 70.3916C71.5127 70.3916 70.8831 70.6939 70.2706 71.232C69.5383 71.8766 68.8327 72.8558 68.2506 74.0594C67.2842 76.1066 66.7834 78.3423 66.7842 80.606Z" fill="#636780"/>
<path d="M66.8144 82.0795C66.8565 83.3405 66.9939 84.5965 67.2252 85.8367C67.2842 85.7417 68.937 83.1405 70.1886 84.81C71.1016 86.0345 70.3331 88.82 69.8329 90.2822C69.9806 90.3174 70.1319 90.3353 70.2837 90.3354C70.8961 90.3354 71.539 90.0426 72.1553 89.5102V89.3201C72.1553 89.3201 71.4192 86.2037 73.384 84.2833C73.384 84.2833 74.335 83.768 75.0483 84.0779C75.2581 83.1716 75.3855 82.2482 75.4287 81.319C75.2613 81.1384 74.1125 79.7979 74.5823 77.2823C74.7611 76.3316 74.9209 75.6528 75.054 75.1908C74.8996 74.143 74.608 73.1202 74.1867 72.1485C74.1867 72.1485 73.8063 74.9322 72.3645 75.0957C70.9228 75.2592 70.2894 71.3347 70.2723 71.2263C69.54 71.8709 68.8343 72.8501 68.2523 74.0537C68.2523 74.0537 70.5595 75.3581 69.8862 78.8243C69.4125 81.2905 67.7406 81.9217 66.8144 82.0795Z" fill="#F0F0F4"/>
<path d="M71.9997 82.8671C71.4008 82.8181 71.0082 81.644 71.1228 80.2447C71.2374 78.8453 71.8158 77.7507 72.4147 77.7997C73.0135 77.8487 73.4061 79.0228 73.2915 80.4221C73.1769 81.8215 72.5986 82.9161 71.9997 82.8671Z" fill="#636780"/>
<path opacity="0.2" d="M44.5855 52.0659L44.652 52.2161C44.7167 52.1856 50.381 49.7442 71.3854 46.181C72.3669 46.015 73.3813 45.8457 74.4287 45.6734C74.5257 45.66 74.6189 45.6429 74.7197 45.6277C78.0806 45.0801 81.7915 44.5116 85.8848 43.9164L85.8619 43.7529C80.3175 44.5515 75.4767 45.3121 71.2542 46.0346C50.3031 49.594 44.6521 52.0373 44.5855 52.0659Z" fill="black"/>
<path opacity="0.1" d="M151.057 20.9513C151.057 20.9513 149.155 17.7189 142.646 17.4318C142.646 17.4318 95.0755 11.2199 65.0421 17.6752C65.0421 17.6752 62.4782 18.816 65.2609 19.4853C68.0436 20.1546 131.996 22.4686 151.057 20.9513Z" fill="black"/>
<path d="M151.057 20.6242C151.057 20.6242 149.155 17.3918 142.646 17.1028C142.646 17.1028 95.0755 10.8928 65.0421 17.3481C65.0421 17.3481 62.4782 18.4889 65.2609 19.1582C68.0436 19.8275 131.996 22.1415 151.057 20.6242Z" fill="white"/>
<path opacity="0.1" d="M155.509 34.2023C152.555 27.2507 149.01 23.9632 147.888 23.0448C147.667 22.8651 147.392 22.7647 147.108 22.7596L131.545 22.4706C131.335 22.4659 131.127 22.5139 130.94 22.6102C130.753 22.7065 130.593 22.8481 130.474 23.022C130.559 22.7626 130.724 22.5372 130.946 22.3791C131.169 22.2209 131.436 22.1383 131.709 22.1435L147.271 22.4326C147.556 22.4364 147.831 22.537 148.051 22.7178C149.173 23.6342 152.719 26.9218 155.673 33.8734C155.781 34.1266 155.826 34.4028 155.802 34.6775C155.779 34.9521 155.688 35.2167 155.538 35.4477C155.689 35.0444 155.679 34.5983 155.509 34.2023Z" fill="black"/>
<path opacity="0.1" d="M127.496 34.9779L125.375 25.3435C124.995 23.5999 123.553 22.364 121.891 22.3488L101.847 22.1587C101.083 22.1534 100.342 22.4188 99.7546 22.9078C100.061 22.5744 100.434 22.3085 100.85 22.1268C101.265 21.9451 101.713 21.8517 102.166 21.8525L122.21 22.0427C123.874 22.0598 125.312 23.2957 125.695 25.0393L127.825 34.6718C128.004 35.4487 127.967 36.2596 127.718 37.017C127.469 37.7743 127.018 38.4493 126.414 38.969C126.907 38.4431 127.264 37.8041 127.452 37.1083C127.641 36.4124 127.656 35.6809 127.496 34.9779Z" fill="black"/>
<path opacity="0.1" d="M84.1573 39.0356L91.252 24.334C91.3524 24.1256 91.3989 23.8953 91.387 23.6643C91.3752 23.4332 91.3055 23.2089 91.1843 23.0118C91.0631 22.8148 90.8943 22.6513 90.6934 22.5365C90.4926 22.4216 90.266 22.3591 90.0347 22.3546C84.6309 22.2558 70.4283 21.8508 63.1092 20.2441C63.5695 19.8847 63.8339 19.6851 63.8339 19.6851C71.0617 21.3488 85.5801 21.7633 91.0599 21.8622C91.2912 21.8666 91.5178 21.9292 91.7187 22.044C91.9195 22.1588 92.0883 22.3223 92.2095 22.5194C92.3307 22.7164 92.4004 22.9408 92.4123 23.1718C92.4241 23.4028 92.3776 23.6331 92.2772 23.8415L85.1806 38.5375C84.8911 39.1384 84.4857 39.6762 83.9875 40.12C83.4894 40.5638 82.9085 40.9048 82.2781 41.1234C83.0893 40.619 83.7409 39.8951 84.1573 39.0356Z" fill="black"/>
<path d="M81.9112 78.7559H84.9697V79.697H81.9112V78.7559Z" fill="#07185F"/>
<path opacity="0.2" d="M81.9112 78.7559H84.9697V79.697H81.9112V78.7559Z" fill="black"/>
<path d="M144.342 69.4409L148.103 70.0893C148.079 70.2194 148.043 70.3469 147.994 70.4696C147.92 70.6598 143.81 70.3232 143.81 70.3232L144.205 70.2415L144.342 69.4409Z" fill="#07185F"/>
<path opacity="0.2" d="M144.342 69.4409L148.103 70.0893C148.079 70.2194 148.043 70.3469 147.994 70.4696C147.92 70.6598 143.81 70.3232 143.81 70.3232L144.205 70.2415L144.342 69.4409Z" fill="black"/>
<path opacity="0.1" d="M158.53 78.657C161.847 78.657 165.794 74.183 165.794 68.6651C165.794 64.8832 165.145 61.4113 163.669 59.603C165.571 61.1375 166.404 65.0068 166.404 69.2755C166.404 74.7896 162.458 79.2674 159.14 79.2674C158.018 79.2674 157.096 78.7616 156.361 77.8793C156.97 78.3867 157.738 78.6622 158.53 78.657Z" fill="black"/>
<path opacity="0.1" d="M70.4706 92.0278C73.4416 92.0278 76.9756 86.6563 76.9756 80.0299C76.9756 75.4875 76.405 71.3196 75.0735 69.1482C76.7854 70.9907 77.5215 75.6377 77.5215 80.7639C77.5215 87.3903 73.9875 92.7618 71.0165 92.7618C70.0122 92.7618 69.1848 92.1533 68.5286 91.0961C69.0802 91.697 69.7269 92.0278 70.4706 92.0278Z" fill="black"/>
<path opacity="0.1" d="M35.1415 66.2873C33.2295 64.376 34.7054 59.8018 38.4379 56.0705C42.1705 52.3392 46.7463 50.8638 48.6582 52.7751C50.5702 54.6864 49.0943 59.2607 45.3617 62.9919C41.6292 66.7232 37.0534 68.1986 35.1415 66.2873Z" fill="black"/>
<path d="M34.9784 66.1244C33.0664 64.2131 34.5423 59.6389 38.2749 55.9076C42.0074 52.1763 46.5832 50.701 48.4951 52.6123C50.4071 54.5236 48.9312 59.0978 45.1987 62.8291C41.4661 66.5604 36.8903 68.0358 34.9784 66.1244Z" fill="#DCE0ED"/>
<path opacity="0.1" d="M35.5324 64.9593C34.1307 63.5582 35.562 59.8555 38.7293 56.6893C41.8966 53.5231 45.6005 52.0923 47.0021 53.4934C48.4038 54.8946 46.9724 58.5972 43.8052 61.7635C40.6379 64.9297 36.934 66.3605 35.5324 64.9593Z" fill="black"/>
<path d="M35.5314 64.7943C34.1298 63.3931 35.5611 59.6905 38.7284 56.5243C41.8956 53.3581 45.5995 51.9272 47.0011 53.3284C48.4028 54.7296 46.9715 58.4322 43.8042 61.5984C40.6369 64.7646 36.9331 66.1954 35.5314 64.7943Z" fill="#F0F0F4"/>
<g opacity="0.1">
<path opacity="0.1" d="M68.506 44.7227C68.584 44.8653 69.1432 45.1999 69.8241 45.5688C69.8869 45.0725 69.9326 44.698 69.9421 44.582C69.982 44.158 69.0766 42.2585 69.0766 42.2585C69.0766 42.2585 67.3439 39.9349 67.3838 39.5851C67.4237 39.2352 66.7143 38.2313 66.7143 38.2313L65.1432 35.6853C65.23 35.8793 65.2609 36.0938 65.2323 36.3044C65.2038 36.5151 65.1169 36.7136 64.9815 36.8775C64.5079 37.4973 64.9035 38.7371 64.9035 38.7371L64.8065 40.3V40.4559C64.8617 40.5111 65.1146 40.7525 65.6739 41.2564C66.1893 41.7204 66.098 41.863 66.039 41.901C66.157 42.1102 66.0124 42.1463 66.0124 42.1463C65.9668 42.1463 65.9211 42.1425 65.8755 42.1349L66.001 42.2509C66.9597 43.1483 68.3653 44.4698 68.506 44.7227Z" fill="url(#paint0_linear)"/>
</g>
<path d="M108.343 22.4262L97.5513 24.2536C97.2847 24.2991 97.0108 24.2441 96.7824 24.0992C96.5541 23.9543 96.3876 23.7299 96.3152 23.4693C95.5355 20.6554 93.9055 16.9845 95.4881 15.1418C95.5687 14.3665 95.9452 13.6522 96.5392 13.1476C97.1333 12.643 97.899 12.3869 98.6771 12.4327C100.605 9.41509 103.816 9.86816 105.986 11.7528C108.17 12.5064 108.994 13.8453 108.706 15.6622C109.649 16.4881 110.144 17.4184 110.248 18.4395C110.298 19.0077 110.225 19.5799 110.036 20.118C109.847 20.656 109.545 21.1475 109.151 21.5597L108.343 22.4262Z" fill="#2F2E41"/>
<path d="M106.674 30.9234L98.3086 30.4313C99.1284 28.5496 99.4559 26.7376 99.1288 25.0183H105.362C105.348 26.3384 106.005 28.6219 106.674 30.9234Z" fill="#FFB9B9"/>
<path d="M96.6049 108.221L96.2618 112.911C96.2463 113.124 96.2763 113.337 96.3499 113.537C96.4235 113.736 96.539 113.918 96.6886 114.07C96.8382 114.221 97.0184 114.339 97.2173 114.415C97.4161 114.491 97.6289 114.524 97.8414 114.511L100.251 114.365C100.362 114.358 100.471 114.327 100.569 114.273C100.668 114.22 100.753 114.145 100.819 114.055C100.885 113.965 100.93 113.861 100.952 113.751C100.974 113.642 100.971 113.529 100.943 113.42L99.6061 108.071L96.6049 108.221Z" fill="#F2F2F2"/>
<path d="M104.393 108.071L103.056 113.42C103.029 113.529 103.026 113.642 103.047 113.751C103.069 113.861 103.114 113.965 103.181 114.055C103.247 114.145 103.332 114.22 103.43 114.273C103.528 114.327 103.637 114.358 103.749 114.365L106.158 114.511C106.371 114.524 106.583 114.491 106.782 114.415C106.981 114.339 107.161 114.221 107.311 114.07C107.46 113.918 107.576 113.736 107.65 113.537C107.723 113.337 107.753 113.124 107.738 112.911L107.395 108.221L104.393 108.071Z" fill="#F2F2F2"/>
<path d="M107.553 108.875L104.302 108.548L101.064 73.9473L99.8411 108.437L96.6467 108.322L91.2627 60.5562H111.833L107.553 108.875Z" fill="#7992F6"/>
<path d="M102.41 27.0092C105.841 27.0092 108.622 24.2279 108.622 20.7969C108.622 17.3659 105.841 14.5845 102.41 14.5845C98.9786 14.5845 96.1973 17.3659 96.1973 20.7969C96.1973 24.2279 98.9786 27.0092 102.41 27.0092Z" fill="#FFB9B9"/>
<path d="M109.405 17.8284C106.884 17.3893 104.405 17.329 101.995 17.886C100.46 18.3885 98.6166 18.3422 96.5664 17.9281V13.7388L107.634 13.9383L109.405 17.8284Z" fill="#2F2E41"/>
<path d="M106.531 25.782C103.813 26.9125 100.964 26.8666 97.9976 25.782C98.8607 24.3088 97.5705 23.1549 96.9082 21.6678L107.984 21.3386C107.137 22.6306 105.887 24.157 106.531 25.782Z" fill="white"/>
<path d="M96.1558 20.818L96.0469 20.9487L97.1362 21.8565L97.2451 21.7258L96.1558 20.818Z" fill="white"/>
<path d="M108.194 22.6546L106.287 25.6501L106.431 25.7415L108.337 22.7459L108.194 22.6546Z" fill="white"/>
<path d="M96.3573 22.6536L96.2139 22.7449L98.1203 25.7407L98.2638 25.6494L96.3573 22.6536Z" fill="white"/>
<path d="M90.5948 49.1305L85.8379 46.178L89.8947 34.2964C90.3472 33.0703 91.2138 32.0409 92.3448 31.3862L93.7114 30.595L93.8302 42.5813L90.5948 49.1305Z" fill="#7992F6"/>
<path d="M111.157 54.9013L110.454 48.8733C110.416 45.6916 110.957 42.6154 112.248 39.781L112.904 30.9233L105.687 27.9707C105.665 28.1178 105.646 28.2648 105.625 28.4118L102.242 30.1031L98.9432 29.3534L98.9615 28.2988L92.4002 31.2513C94.57 41.3389 93.3866 51.8145 89.6553 64.1879L98.2991 66.5514L98.371 62.4009L106.075 61.8507C106.154 63.1973 106.218 64.5199 106.255 65.8133C110.602 67.4136 110.751 67.3871 114.711 65.0957C113.134 61.7796 111.885 58.3289 111.157 54.9013Z" fill="#7992F6"/>
<path d="M122.257 47.6542L117.828 46.178L110.744 37.9309L112.907 30.9231L122.749 44.7017L122.257 47.6542Z" fill="#7992F6"/>
<path d="M108.371 54.0389C108.444 54.3569 108.639 54.6332 108.915 54.8072C109.191 54.9812 109.525 55.0387 109.843 54.9671L113.602 54.1157L113.059 51.7161L109.299 52.5673C108.981 52.6394 108.705 52.8349 108.531 53.1109C108.356 53.3869 108.299 53.7207 108.371 54.0389V54.0389Z" fill="#E6E6E6"/>
<path d="M111.756 51.2622L113.888 55.1989C117.475 54.1986 120.583 51.0449 123.566 47.3254L122.746 44.7009L117.661 46.0132L111.756 51.2622Z" fill="#7992F6"/>
<path d="M83.9521 38.9141L88.0458 39.645L97.4028 52.9495L92.4319 51.7798L83.9521 38.9141Z" fill="#E6E6E6"/>
<path d="M83.2248 38.751C83.1624 38.7519 83.1014 38.7696 83.0482 38.8022C82.995 38.8348 82.9515 38.881 82.9223 38.9362C82.8931 38.9913 82.8793 39.0533 82.8822 39.1156C82.8852 39.1779 82.9048 39.2383 82.9391 39.2904L91.6854 52.5607C91.7342 52.6349 91.8096 52.6875 91.896 52.7078L95.9654 53.6653C96.034 53.6814 96.1059 53.6763 96.1716 53.6507C96.2372 53.625 96.2935 53.58 96.333 53.5216C96.3725 53.4632 96.3933 53.3942 96.3926 53.3237C96.392 53.2532 96.3699 53.1846 96.3294 53.127L86.7265 39.4729C86.7004 39.4357 86.6673 39.404 86.629 39.3796C86.5907 39.3552 86.548 39.3386 86.5032 39.3307L83.2904 38.7569C83.2687 38.753 83.2468 38.751 83.2248 38.751Z" fill="#3F3D56"/>
<path d="M88.6738 48.2379L88.9169 50.6863L92.7527 50.3055C93.0774 50.2733 93.376 50.1134 93.5828 49.8611C93.7896 49.6087 93.8877 49.2845 93.8555 48.9598C93.8233 48.6351 93.6634 48.3365 93.411 48.1297C93.1586 47.9229 92.8344 47.8249 92.5097 47.8571L88.6738 48.2379Z" fill="#E6E6E6"/>
<path d="M85.3398 47.9544C85.3454 48.7893 85.6807 49.5881 86.2727 50.1769C86.8647 50.7656 87.6654 51.0965 88.5003 51.0974H89.131L89.5902 47.2708L85.7882 45.9021L85.3398 47.9544Z" fill="#7992F6"/>
<path d="M107.693 21.7589L107.573 21.6387L107.755 21.4571L108.84 20.1909L108.969 20.3014L107.879 21.5724L107.693 21.7589Z" fill="white"/>
<path d="M147.518 24.2083L135.687 24.3236C135.131 21.5858 133.262 14.4024 134.945 12.443C135.021 11.7055 135.38 11.0261 135.945 10.5461C136.51 10.0661 137.238 9.82246 137.978 9.866C139.812 6.99551 142.867 7.4265 144.931 9.21924C147.009 9.93614 147.792 11.2097 147.518 12.9381C149.057 14.2849 149.34 15.9235 148.65 17.7888L147.518 24.2083Z" fill="#2F2E41"/>
<path d="M146.376 31.4951L137.84 30.3132L136.133 27.818C138.485 26.2581 139.317 24.0793 138.234 21.1206L144.143 20.9893C143.867 23.624 144.738 25.6641 147.164 26.8988L146.376 31.4951Z" fill="#FFB9B9"/>
<path d="M135.82 108.491L135.494 112.953C135.479 113.155 135.508 113.358 135.578 113.548C135.648 113.738 135.758 113.91 135.9 114.055C136.042 114.199 136.214 114.311 136.403 114.383C136.592 114.455 136.794 114.487 136.997 114.474L139.289 114.335C139.395 114.329 139.498 114.299 139.592 114.248C139.685 114.197 139.766 114.126 139.829 114.041C139.892 113.955 139.935 113.856 139.956 113.752C139.976 113.647 139.973 113.54 139.947 113.437L138.675 108.348L135.82 108.491Z" fill="#F2F2F2"/>
<path d="M143.254 108.348L141.982 113.437C141.956 113.54 141.953 113.647 141.974 113.752C141.994 113.856 142.037 113.955 142.1 114.041C142.163 114.126 142.244 114.197 142.337 114.248C142.431 114.299 142.534 114.329 142.641 114.335L144.932 114.474C145.135 114.486 145.337 114.455 145.526 114.383C145.715 114.311 145.887 114.199 146.029 114.055C146.171 113.91 146.281 113.738 146.351 113.548C146.421 113.358 146.45 113.155 146.435 112.953L146.109 108.491L143.254 108.348Z" fill="#F2F2F2"/>
<path d="M146.252 109.109L143.159 108.799L140.08 75.8844L138.916 108.693L135.877 108.584L130.756 63.146H150.323L146.252 109.109Z" fill="#7992F6"/>
<path d="M141.527 23.2209C144.79 23.2209 147.436 20.5751 147.436 17.3114C147.436 14.0476 144.79 11.4019 141.527 11.4019C138.263 11.4019 135.617 14.0476 135.617 17.3114C135.617 20.5751 138.263 23.2209 141.527 23.2209Z" fill="#FFB9B9"/>
<path d="M153.215 64.1954L129.314 64.4581C132.861 50.9551 134.983 38.412 131.284 29.7889L137.194 26.8999C140.043 29.8719 143.217 29.5655 146.649 26.6372L152.296 28.0818C151.329 39.3896 151.762 51.5003 153.215 64.1954Z" fill="#7992F6"/>
<path d="M122.746 50.2768L137.586 56.1863L140.903 57.1621C141.052 57.2058 141.207 57.219 141.361 57.2009C141.515 57.1829 141.663 57.134 141.797 57.0571C141.932 56.9803 142.049 56.8771 142.142 56.7538C142.236 56.6304 142.303 56.4895 142.341 56.3394C142.406 56.0763 142.377 55.7984 142.257 55.5549C142.138 55.3115 141.936 55.1183 141.687 55.0096L138.242 53.9538L127.868 47.913L130.035 42.2005L125.504 39.771L122.746 50.2768Z" fill="#FFB9B9"/>
<path d="M122.87 39.506C125.693 40.6074 127.939 42.4872 129.699 45.0215L135.214 37.0108L131.275 29.7881L122.87 39.506Z" fill="#7992F6"/>
<path d="M148.182 16.3576C145.783 15.7396 143.425 15.6548 141.133 16.4386C139.673 17.1459 137.919 17.0807 135.969 16.498V10.6021L146.497 10.8828L148.182 16.3576Z" fill="#2F2E41"/>
<path d="M137.534 43.3906C137.07 43.3911 136.626 43.5757 136.297 43.9038C135.969 44.232 135.785 44.6768 135.784 45.1409L136.475 59.6027C136.476 60.0667 136.66 60.5116 136.988 60.8397C137.316 61.1679 137.761 61.3524 138.225 61.3529H146.124C146.588 61.3524 147.033 61.1679 147.361 60.8397C147.689 60.5116 147.874 60.0667 147.874 59.6027L148.565 45.1409C148.565 44.6768 148.38 44.232 148.052 43.9038C147.724 43.5757 147.279 43.3911 146.815 43.3906H137.534Z" fill="#3F3D56"/>
<path d="M159.945 49.1819L147.011 54.3323L146.035 54.7209C146.004 54.733 145.973 54.7433 145.94 54.7537L142.67 55.7157C142.252 55.8383 141.674 55.2753 141.335 54.8867C141.168 54.6994 141.073 54.4583 141.068 54.207C141.063 53.9557 141.148 53.7109 141.308 53.5171C141.353 53.465 141.402 53.417 141.456 53.3737C141.582 53.2756 141.73 53.2104 141.888 53.1837L145.154 52.5412C145.271 52.5182 145.384 52.4762 145.487 52.4169L147.011 51.5291L154.919 46.9245C155.139 46.7967 155.307 46.5949 155.392 46.3552C155.477 46.1154 155.474 45.8533 155.384 45.6154L153.874 41.6343C153.782 41.3907 153.781 41.1218 153.872 40.8777C153.963 40.6336 154.14 40.431 154.37 40.3078L156.871 38.9676C157.014 38.8909 157.172 38.8476 157.334 38.841C157.496 38.8344 157.658 38.8647 157.806 38.9295C157.955 38.9944 158.087 39.0921 158.193 39.2154C158.298 39.3386 158.374 39.4842 158.415 39.6412L160.586 47.9107C160.653 48.1643 160.624 48.4336 160.506 48.6677C160.388 48.9019 160.189 49.0848 159.945 49.1819Z" fill="#FFB9B9"/>
<path d="M160.69 38.064C157.867 39.1655 155.621 41.0453 153.861 43.5796L148.346 35.5689L152.285 28.0835L160.69 38.064Z" fill="#7992F6"/>
<path d="M145.465 22.5754C142.88 23.6507 140.169 23.6071 137.348 22.5754C138.169 21.174 136.942 20.0764 136.312 18.6617L146.847 18.3486C146.041 19.5776 144.853 21.0296 145.465 22.5754Z" fill="white"/>
<path d="M146.734 18.5822L146.611 18.4601L146.784 18.2874L147.816 17.0833L147.947 17.1955L146.911 18.4045L146.734 18.5822Z" fill="white"/>
<path d="M135.589 17.8502L135.479 17.9829L136.515 18.8465L136.625 18.7137L135.589 17.8502Z" fill="white"/>
<path d="M147.019 19.5973L145.205 22.4468L145.351 22.5395L147.165 19.69L147.019 19.5973Z" fill="white"/>
<path d="M135.776 19.5952L135.63 19.688L137.443 22.5378L137.589 22.445L135.776 19.5952Z" fill="white"/>
<path d="M147.366 51.2856V54.4146L146.277 54.8484C146.243 54.8619 146.208 54.8735 146.171 54.885L142.522 55.9589C142.055 56.0957 141.409 55.4673 141.031 55.0335C140.844 54.8244 140.738 54.5553 140.733 54.2748C140.727 53.9943 140.822 53.7211 141.001 53.5047C141.051 53.4465 141.106 53.393 141.166 53.3446C141.307 53.2352 141.473 53.1623 141.648 53.1326L145.294 52.4154C145.425 52.3897 145.55 52.3428 145.666 52.2766L147.366 51.2856Z" fill="white"/>
<path d="M148.929 40.124H148.304C148.304 31.2964 146.487 25.1446 144.716 25.1446L144.56 24.5205C146.148 24.5205 147.161 27.0808 147.731 29.2287C148.503 32.1406 148.929 36.0099 148.929 40.124Z" fill="#3F3D56"/>
<path d="M134.586 37.9392H133.962C133.962 29.8546 135.792 24.8323 138.487 24.8323L138.331 25.4564C136.467 25.4564 134.586 29.3162 134.586 37.9392Z" fill="#3F3D56"/>
<path d="M148.632 41.8436C149.493 41.8436 150.192 41.145 150.192 40.2832C150.192 39.4215 149.493 38.7229 148.632 38.7229C147.77 38.7229 147.071 39.4215 147.071 40.2832C147.071 41.145 147.77 41.8436 148.632 41.8436Z" fill="#3F3D56"/>
<path d="M132.091 41.6841H131.467C131.467 39.4471 132.727 37.6272 134.275 37.6272V38.2513C133.071 38.2513 132.091 39.7913 132.091 41.6841Z" fill="#3F3D56"/>
<path d="M137.073 41.6841H136.449C136.449 39.7913 135.469 38.2513 134.265 38.2513V37.6272C135.813 37.6272 137.073 39.4471 137.073 41.6841Z" fill="#3F3D56"/>
<path d="M136.757 42.4643C137.102 42.4643 137.381 42.1849 137.381 41.8402C137.381 41.4955 137.102 41.2161 136.757 41.2161C136.412 41.2161 136.133 41.4955 136.133 41.8402C136.133 42.1849 136.412 42.4643 136.757 42.4643Z" fill="#3F3D56"/>
<path d="M131.771 42.4643C132.115 42.4643 132.395 42.1849 132.395 41.8402C132.395 41.4955 132.115 41.2161 131.771 41.2161C131.426 41.2161 131.146 41.4955 131.146 41.8402C131.146 42.1849 131.426 42.4643 131.771 42.4643Z" fill="#3F3D56"/>
<defs>
<linearGradient id="paint0_linear" x1="-3235.47" y1="5283.63" x2="-3377.34" y2="5283.63" gradientUnits="userSpaceOnUse">
<stop stop-color="#808080" stop-opacity="0.25"/>
<stop offset="0.54" stop-color="#808080" stop-opacity="0.12"/>
<stop offset="1" stop-color="#808080" stop-opacity="0.1"/>
</linearGradient>
</defs>
</svg>
