<svg width="126" height="141" viewBox="0 0 126 141" fill="none" xmlns="http://www.w3.org/2000/svg">
<circle cx="63" cy="70.0559" r="63" fill="#8B99F3"/>
<path d="M98.2691 32.3278V48.2017C98.2687 48.3484 98.2103 48.489 98.1066 48.5927C98.0029 48.6964 97.8624 48.7548 97.7158 48.7552H97.322V131.448C97.3218 133.736 96.413 135.931 94.7953 137.549C93.1777 139.167 90.9837 140.076 88.696 140.076H37.0396C35.907 140.076 34.7855 139.853 33.7391 139.419C32.6927 138.985 31.742 138.35 30.9413 137.549C30.1405 136.747 29.5053 135.796 29.072 134.749C28.6388 133.703 28.4159 132.581 28.4161 131.448V51.6554H28.131C28.0275 51.6556 27.9282 51.6147 27.8549 51.5418C27.7815 51.4688 27.74 51.3698 27.7395 51.2663V42.2321C27.7395 42.1807 27.7496 42.1298 27.7693 42.0823C27.789 42.0348 27.8178 41.9916 27.8542 41.9552C27.8905 41.9189 27.9337 41.89 27.9812 41.8704C28.0287 41.8507 28.0796 41.8406 28.131 41.8406H28.4161V38.4376H28.1285C28.02 38.4372 27.916 38.3937 27.8394 38.3167C27.7629 38.2397 27.72 38.1354 27.7202 38.0268V29.1158C27.7205 29.0076 27.7636 28.9039 27.8401 28.8273C27.9166 28.7508 28.0203 28.7077 28.1285 28.7074H28.4161V24.0622H28.1237C28.0761 24.0623 28.0289 24.0529 27.9849 24.0347C27.9409 24.0165 27.901 23.9898 27.8673 23.9562C27.8336 23.9225 27.8069 23.8825 27.7887 23.8385C27.7705 23.7945 27.7612 23.7473 27.7613 23.6997V18.837C27.7611 18.7405 27.7991 18.6479 27.867 18.5795C27.935 18.5111 28.0273 18.4724 28.1237 18.472H28.4161V8.62575C28.4162 6.33809 29.3248 4.14414 30.942 2.52652C32.5592 0.908891 34.7525 8.26821e-05 37.0396 0H88.696C90.9833 -1.09829e-05 93.177 0.90869 94.7946 2.52626C96.4122 4.14384 97.3213 6.33783 97.322 8.62575V31.7744H97.7158C97.8624 31.7748 98.0029 31.8332 98.1066 31.9369C98.2103 32.0406 98.2687 32.1812 98.2691 32.3278Z" fill="#434551"/>
<path d="M67.008 5H58.6142C58.275 5 58 5.27505 58 5.61434V6.34003C58 6.67932 58.275 6.95437 58.6142 6.95437H67.008C67.3472 6.95437 67.6222 6.67932 67.6222 6.34003V5.61434C67.6222 5.27505 67.3472 5 67.008 5Z" fill="#E6E8EC"/>
<path d="M93.1908 10.3321V132.163C93.1902 133.615 92.6133 135.006 91.587 136.033C90.5608 137.059 89.1691 137.635 87.7181 137.635H38.2701C37.5513 137.636 36.8393 137.496 36.1749 137.221C35.5105 136.947 34.9068 136.544 34.3984 136.035C33.8899 135.527 33.4868 134.923 33.2121 134.259C32.9374 133.594 32.7964 132.882 32.7974 132.163V10.3321C32.7973 9.6132 32.9389 8.90134 33.2139 8.23717C33.4889 7.573 33.892 6.96952 34.4002 6.46119C34.9084 5.95286 35.5117 5.54964 36.1757 5.27455C36.8397 4.99945 37.5514 4.85788 38.2701 4.85791H45.671V5.80773C45.671 7.00317 46.1458 8.14965 46.9909 8.99496C47.8359 9.84026 48.9821 10.3152 50.1773 10.3152H75.3253C76.5204 10.3152 77.6666 9.84027 78.5117 8.99496C79.3568 8.14966 79.8316 7.00318 79.8316 5.80773V4.85791H87.7181C88.4369 4.85768 89.1486 4.99911 89.8127 5.27413C90.4768 5.54915 91.0802 5.95237 91.5884 6.46074C92.0967 6.96911 92.4998 7.57267 92.7747 8.23693C93.0497 8.9012 93.1911 9.61314 93.1908 10.3321Z" fill="white"/>
<circle cx="62.9998" cy="70.056" r="25.2" fill="#07185F"/>
<path d="M62.4982 57.9998L62.4984 71.2055" stroke="white" stroke-width="3" stroke-linecap="round"/>
<path d="M62.4999 71.3109L70.3108 71.3111" stroke="white" stroke-width="3" stroke-linecap="round"/>
<circle cx="63" cy="70" r="18.5" stroke="white" stroke-width="3"/>
</svg>
