<svg width="126" height="140" viewBox="0 0 126 140" fill="none" xmlns="http://www.w3.org/2000/svg">
<ellipse cx="63" cy="70.0181" rx="63" ry="62.9658" fill="#8B99F3"/>
<path d="M98.2691 32.3103V48.1756C98.2687 48.3222 98.2103 48.4626 98.1066 48.5663C98.0029 48.6699 97.8624 48.7283 97.7158 48.7287H97.322V131.377C97.3218 133.664 96.413 135.857 94.7953 137.474C93.1777 139.091 90.9837 140 88.696 140H37.0396C35.907 140 34.7855 139.777 33.7391 139.343C32.6927 138.91 31.742 138.275 30.9413 137.474C30.1405 136.673 29.5053 135.722 29.072 134.676C28.6388 133.63 28.4159 132.509 28.4161 131.377V51.6274H28.131C28.0275 51.6275 27.9282 51.5867 27.8549 51.5138C27.7815 51.4409 27.74 51.3419 27.7395 51.2385V42.2092C27.7395 42.1578 27.7496 42.1069 27.7693 42.0594C27.789 42.0119 27.8178 41.9688 27.8542 41.9325C27.8905 41.8961 27.9337 41.8673 27.9812 41.8476C28.0287 41.828 28.0796 41.8179 28.131 41.8179H28.4161V38.4168H28.1285C28.02 38.4164 27.916 38.3729 27.8394 38.2959C27.7629 38.2189 27.72 38.1147 27.7202 38.0061V29.1C27.7205 28.9919 27.7636 28.8882 27.8401 28.8117C27.9166 28.7352 28.0203 28.6921 28.1285 28.6918H28.4161V24.0491H28.1237C28.0761 24.0492 28.0289 24.0399 27.9849 24.0217C27.9409 24.0035 27.901 23.9768 27.8673 23.9432C27.8336 23.9095 27.8069 23.8695 27.7887 23.8255C27.7705 23.7816 27.7612 23.7344 27.7613 23.6868V18.8267C27.7611 18.7304 27.7991 18.6378 27.867 18.5694C27.935 18.5011 28.0273 18.4624 28.1237 18.462H28.4161V8.62107C28.4162 6.33464 29.3248 4.14189 30.942 2.52514C32.5592 0.908398 34.7525 8.26372e-05 37.0396 0H88.696C90.9833 -1.0977e-05 93.177 0.908197 94.7946 2.52489C96.4122 4.14159 97.3213 6.33439 97.322 8.62107V31.7571H97.7158C97.8624 31.7575 98.0029 31.8159 98.1066 31.9196C98.2103 32.0232 98.2687 32.1637 98.2691 32.3103Z" fill="#434551"/>
<path d="M67.008 4.99707H58.6142C58.275 4.99707 58 5.27197 58 5.61107V6.33638C58 6.67548 58.275 6.95038 58.6142 6.95038H67.008C67.3472 6.95038 67.6222 6.67548 67.6222 6.33638V5.61107C67.6222 5.27197 67.3472 4.99707 67.008 4.99707Z" fill="#E6E8EC"/>
<path d="M93.1908 10.3267V132.092C93.1902 133.542 92.6133 134.933 91.587 135.959C90.5608 136.984 89.1691 137.561 87.7181 137.561H38.2701C37.5513 137.562 36.8393 137.421 36.1749 137.147C35.5105 136.872 34.9068 136.47 34.3984 135.962C33.8899 135.454 33.4868 134.85 33.2121 134.186C32.9374 133.522 32.7964 132.81 32.7974 132.092V10.3267C32.7973 9.60817 32.9389 8.89671 33.2139 8.2329C33.4889 7.56909 33.892 6.96594 34.4002 6.45788C34.9084 5.94983 35.5117 5.54682 36.1757 5.27188C36.8397 4.99694 37.5514 4.85544 38.2701 4.85547H45.671V5.80478C45.671 6.99957 46.1458 8.14543 46.9909 8.99027C47.8359 9.83512 48.9821 10.3098 50.1773 10.3098H75.3253C76.5204 10.3098 77.6666 9.83512 78.5117 8.99028C79.3568 8.14543 79.8316 6.99957 79.8316 5.80478V4.85547H87.7181C88.4369 4.85524 89.1486 4.99659 89.8127 5.27146C90.4768 5.54633 91.0802 5.94933 91.5884 6.45743C92.0967 6.96552 92.4998 7.56876 92.7747 8.23266C93.0497 8.89656 93.1911 9.60812 93.1908 10.3267Z" fill="white"/>
<ellipse cx="62.9998" cy="70.0179" rx="25.2" ry="25.1863" fill="#19EFDD"/>
<path d="M50.3999 72.9442L56.9999 79.5406L75.5999 60.9507" stroke="white" stroke-width="3" stroke-linecap="round" stroke-linejoin="round"/>
</svg>
