<svg width="288" height="61" viewBox="0 0 288 61" fill="none" xmlns="http://www.w3.org/2000/svg">
<path d="M4.09668 52.1133C4.55241 52.1133 4.91211 52.0221 5.17578 51.8398C5.44271 51.6576 5.57617 51.3288 5.57617 50.8535C5.57617 50.3424 5.39062 49.9941 5.01953 49.8086C4.82096 49.7109 4.55566 49.6621 4.22363 49.6621H1.85059V52.1133H4.09668ZM0.878906 48.8271H4.19922C4.74609 48.8271 5.19694 48.9069 5.55176 49.0664C6.22559 49.3724 6.5625 49.9372 6.5625 50.7607C6.5625 51.1904 6.47298 51.542 6.29395 51.8154C6.11816 52.0889 5.87077 52.3086 5.55176 52.4746C5.83171 52.5885 6.04167 52.7383 6.18164 52.9238C6.32487 53.1094 6.40462 53.4105 6.4209 53.8271L6.45508 54.7891C6.46484 55.0625 6.48763 55.266 6.52344 55.3994C6.58203 55.6273 6.6862 55.7738 6.83594 55.8389V56H5.64453C5.61198 55.9382 5.58594 55.8584 5.56641 55.7607C5.54688 55.6631 5.5306 55.4743 5.51758 55.1943L5.45898 53.998C5.4362 53.5293 5.26204 53.2152 4.93652 53.0557C4.75098 52.9678 4.45964 52.9238 4.0625 52.9238H1.85059V56H0.878906V48.8271ZM10.0488 50.6533C10.4199 50.6533 10.7796 50.7412 11.1279 50.917C11.4762 51.0895 11.7415 51.3141 11.9238 51.5908C12.0996 51.8545 12.2168 52.1621 12.2754 52.5137C12.3275 52.7546 12.3535 53.1387 12.3535 53.666H8.52051C8.53678 54.1966 8.66211 54.623 8.89648 54.9453C9.13086 55.2643 9.49382 55.4238 9.98535 55.4238C10.4443 55.4238 10.8105 55.2725 11.084 54.9697C11.2402 54.7939 11.3509 54.5905 11.416 54.3594H12.2803C12.2575 54.5514 12.181 54.7663 12.0508 55.0039C11.9238 55.2383 11.7806 55.4303 11.6211 55.5801C11.3542 55.8405 11.0238 56.0163 10.6299 56.1074C10.4183 56.1595 10.179 56.1855 9.91211 56.1855C9.26107 56.1855 8.70931 55.9495 8.25684 55.4775C7.80436 55.0023 7.57812 54.3382 7.57812 53.4854C7.57812 52.6455 7.80599 51.9635 8.26172 51.4395C8.71745 50.9154 9.31315 50.6533 10.0488 50.6533ZM11.4502 52.9678C11.4144 52.5869 11.3314 52.2826 11.2012 52.0547C10.9603 51.6315 10.5583 51.4199 9.99512 51.4199C9.59147 51.4199 9.25293 51.5664 8.97949 51.8594C8.70605 52.1491 8.5612 52.5186 8.54492 52.9678H11.4502ZM15.2832 50.6777C15.6934 50.6777 16.0514 50.7786 16.3574 50.9805C16.5234 51.0944 16.6927 51.2604 16.8652 51.4785V50.8193H17.6758V55.5752C17.6758 56.2393 17.5781 56.7633 17.3828 57.1475C17.0182 57.8571 16.3298 58.2119 15.3174 58.2119C14.7542 58.2119 14.2806 58.085 13.8965 57.8311C13.5124 57.5804 13.2975 57.1865 13.252 56.6494H14.1455C14.1878 56.8838 14.2725 57.0645 14.3994 57.1914C14.598 57.3867 14.9105 57.4844 15.3369 57.4844C16.0107 57.4844 16.4518 57.2467 16.6602 56.7715C16.7839 56.4915 16.8408 55.9919 16.8311 55.2725C16.6553 55.5394 16.4437 55.738 16.1963 55.8682C15.9489 55.9984 15.6217 56.0635 15.2148 56.0635C14.6484 56.0635 14.152 55.8633 13.7256 55.4629C13.3024 55.0592 13.0908 54.3936 13.0908 53.4658C13.0908 52.5902 13.304 51.9066 13.7305 51.415C14.1602 50.9235 14.6777 50.6777 15.2832 50.6777ZM16.8652 53.3633C16.8652 52.7155 16.7318 52.2354 16.4648 51.9229C16.1979 51.6104 15.8577 51.4541 15.4443 51.4541C14.8258 51.4541 14.4027 51.7438 14.1748 52.3232C14.0544 52.6325 13.9941 53.0378 13.9941 53.5391C13.9941 54.1283 14.113 54.5775 14.3506 54.8867C14.5915 55.1927 14.9137 55.3457 15.3174 55.3457C15.9489 55.3457 16.3932 55.0609 16.6504 54.4912C16.7936 54.1689 16.8652 53.793 16.8652 53.3633ZM19.0039 50.7949H19.8975V56H19.0039V50.7949ZM19.0039 48.8271H19.8975V49.8232H19.0039V48.8271ZM21.7529 54.3594C21.779 54.6523 21.8522 54.877 21.9727 55.0332C22.194 55.3164 22.5781 55.458 23.125 55.458C23.4505 55.458 23.737 55.388 23.9844 55.248C24.2318 55.1048 24.3555 54.8851 24.3555 54.5889C24.3555 54.3643 24.2562 54.1934 24.0576 54.0762C23.9307 54.0046 23.68 53.9215 23.3057 53.8271L22.6074 53.6514C22.1615 53.5407 21.8327 53.417 21.6211 53.2803C21.2435 53.0426 21.0547 52.7139 21.0547 52.2939C21.0547 51.7992 21.2321 51.3988 21.5869 51.0928C21.945 50.7868 22.4251 50.6338 23.0273 50.6338C23.8151 50.6338 24.3831 50.8649 24.7314 51.3271C24.9495 51.6201 25.0553 51.9359 25.0488 52.2744H24.2188C24.2025 52.0758 24.1325 51.8952 24.0088 51.7324C23.807 51.5013 23.457 51.3857 22.959 51.3857C22.627 51.3857 22.3747 51.4492 22.2021 51.5762C22.0329 51.7031 21.9482 51.8708 21.9482 52.0791C21.9482 52.307 22.0605 52.4893 22.2852 52.626C22.4154 52.7074 22.6074 52.779 22.8613 52.8408L23.4424 52.9824C24.0739 53.1354 24.4971 53.2835 24.7119 53.4268C25.0537 53.6514 25.2246 54.0046 25.2246 54.4863C25.2246 54.9518 25.0472 55.3538 24.6924 55.6924C24.3408 56.0309 23.8037 56.2002 23.0811 56.2002C22.3031 56.2002 21.7513 56.0244 21.4258 55.6729C21.1035 55.318 20.931 54.8802 20.9082 54.3594H21.7529ZM25.8398 55.3066L28.9404 51.5566H26.0693V50.7705H30.1221V51.4883L27.041 55.2139H30.2148V56H25.8398V55.3066ZM31.4062 49.3105H32.2949V50.7705H33.1299V51.4883H32.2949V54.9014C32.2949 55.0837 32.3568 55.2057 32.4805 55.2676C32.5488 55.3034 32.6628 55.3213 32.8223 55.3213C32.8646 55.3213 32.9102 55.3213 32.959 55.3213C33.0078 55.318 33.0648 55.3132 33.1299 55.3066V56C33.029 56.0293 32.9232 56.0505 32.8125 56.0635C32.7051 56.0765 32.5879 56.083 32.4609 56.083C32.0508 56.083 31.7725 55.9788 31.626 55.7705C31.4795 55.5589 31.4062 55.2855 31.4062 54.9502V51.4883H30.6982V50.7705H31.4062V49.3105ZM34.0381 50.7705H34.873V51.6738C34.9414 51.498 35.109 51.2848 35.376 51.0342C35.6429 50.7803 35.9505 50.6533 36.2988 50.6533C36.3151 50.6533 36.3428 50.6549 36.3818 50.6582C36.4209 50.6615 36.4876 50.668 36.582 50.6777V51.6055C36.5299 51.5957 36.4811 51.5892 36.4355 51.5859C36.3932 51.5827 36.346 51.5811 36.2939 51.5811C35.8512 51.5811 35.5111 51.7243 35.2734 52.0107C35.0358 52.2939 34.917 52.6211 34.917 52.9922V56H34.0381V50.7705ZM38.0176 54.6084C38.0176 54.8623 38.1104 55.0625 38.2959 55.209C38.4814 55.3555 38.7012 55.4287 38.9551 55.4287C39.2643 55.4287 39.5638 55.3571 39.8535 55.2139C40.3418 54.9762 40.5859 54.5872 40.5859 54.0469V53.3389C40.4785 53.4072 40.3402 53.4642 40.1709 53.5098C40.0016 53.5553 39.8356 53.5879 39.6729 53.6074L39.1406 53.6758C38.8216 53.7181 38.5824 53.7848 38.4229 53.876C38.1527 54.029 38.0176 54.2731 38.0176 54.6084ZM40.1465 52.8311C40.3483 52.805 40.4834 52.7204 40.5518 52.5771C40.5908 52.499 40.6104 52.3867 40.6104 52.2402C40.6104 51.9408 40.5029 51.7243 40.2881 51.5908C40.0765 51.4541 39.7721 51.3857 39.375 51.3857C38.916 51.3857 38.5905 51.5094 38.3984 51.7568C38.291 51.8936 38.221 52.097 38.1885 52.3672H37.3682C37.3844 51.7227 37.5928 51.2751 37.9932 51.0244C38.3968 50.7705 38.8639 50.6436 39.3945 50.6436C40.0098 50.6436 40.5094 50.7607 40.8936 50.9951C41.2744 51.2295 41.4648 51.5941 41.4648 52.0889V55.1016C41.4648 55.1927 41.4827 55.266 41.5186 55.3213C41.5576 55.3766 41.6374 55.4043 41.7578 55.4043C41.7969 55.4043 41.8408 55.4027 41.8896 55.3994C41.9385 55.3929 41.9906 55.3848 42.0459 55.375V56.0244C41.9092 56.0635 41.805 56.0879 41.7334 56.0977C41.6618 56.1074 41.5641 56.1123 41.4404 56.1123C41.1377 56.1123 40.918 56.0049 40.7812 55.79C40.7096 55.6761 40.6592 55.515 40.6299 55.3066C40.4508 55.541 40.1937 55.7445 39.8584 55.917C39.5231 56.0895 39.1536 56.1758 38.75 56.1758C38.265 56.1758 37.8678 56.0293 37.5586 55.7363C37.2526 55.4401 37.0996 55.0706 37.0996 54.6279C37.0996 54.1429 37.251 53.7669 37.5537 53.5C37.8564 53.2331 38.2536 53.0687 38.7451 53.0068L40.1465 52.8311ZM40.5176 48.666L39.2139 50.0771H38.54L39.4336 48.666H40.5176ZM44.9268 50.6191C45.516 50.6191 45.9945 50.7624 46.3623 51.0488C46.7334 51.3353 46.9564 51.8285 47.0312 52.5283H46.1768C46.1247 52.2061 46.0059 51.9391 45.8203 51.7275C45.6348 51.5127 45.3369 51.4053 44.9268 51.4053C44.3669 51.4053 43.9665 51.6787 43.7256 52.2256C43.5693 52.5804 43.4912 53.0182 43.4912 53.5391C43.4912 54.0632 43.6019 54.5042 43.8232 54.8623C44.0446 55.2204 44.3929 55.3994 44.8682 55.3994C45.2327 55.3994 45.5208 55.2887 45.7324 55.0674C45.9473 54.8428 46.0954 54.5368 46.1768 54.1494H47.0312C46.9336 54.8428 46.6895 55.3506 46.2988 55.6729C45.9082 55.9919 45.4085 56.1514 44.7998 56.1514C44.1162 56.1514 43.571 55.9023 43.1641 55.4043C42.7572 54.903 42.5537 54.278 42.5537 53.5293C42.5537 52.6113 42.7767 51.8968 43.2227 51.3857C43.6686 50.8747 44.2367 50.6191 44.9268 50.6191ZM47.9102 50.7949H48.8037V56H47.9102V50.7949ZM47.9102 48.8271H48.8037V49.8232H47.9102V48.8271ZM52.2119 55.4336C52.7946 55.4336 53.1934 55.2139 53.4082 54.7744C53.6263 54.3317 53.7354 53.8402 53.7354 53.2998C53.7354 52.8115 53.6572 52.4144 53.501 52.1084C53.2536 51.6266 52.8271 51.3857 52.2217 51.3857C51.6846 51.3857 51.2939 51.5908 51.0498 52.001C50.8057 52.4111 50.6836 52.9059 50.6836 53.4854C50.6836 54.042 50.8057 54.5059 51.0498 54.877C51.2939 55.248 51.6813 55.4336 52.2119 55.4336ZM52.2461 50.6191C52.9199 50.6191 53.4896 50.8438 53.9551 51.293C54.4206 51.7422 54.6533 52.403 54.6533 53.2754C54.6533 54.1185 54.4482 54.8151 54.0381 55.3652C53.6279 55.9154 52.9915 56.1904 52.1289 56.1904C51.4095 56.1904 50.8382 55.9479 50.415 55.4629C49.9919 54.9746 49.7803 54.3203 49.7803 53.5C49.7803 52.6211 50.0033 51.9212 50.4492 51.4004C50.8952 50.8796 51.4941 50.6191 52.2461 50.6191ZM53.2666 48.666L51.9629 50.0771H51.2891L52.1826 48.666H53.2666Z" fill="#07185F"/>
<path d="M76.4434 53.0605L75.3545 49.8916L74.1973 53.0605H76.4434ZM74.8467 48.8271H75.9453L78.5479 56H77.4834L76.7559 53.8516H73.9189L73.1426 56H72.1465L74.8467 48.8271ZM79.8711 53.4463C79.8711 54.0062 79.9899 54.4749 80.2275 54.8525C80.4652 55.2301 80.846 55.4189 81.3701 55.4189C81.777 55.4189 82.1107 55.2448 82.3711 54.8965C82.6348 54.5449 82.7666 54.042 82.7666 53.3877C82.7666 52.7269 82.6315 52.2386 82.3613 51.9229C82.0911 51.6038 81.7575 51.4443 81.3604 51.4443C80.9176 51.4443 80.5579 51.6136 80.2812 51.9521C80.0078 52.2907 79.8711 52.7887 79.8711 53.4463ZM81.1943 50.6777C81.5947 50.6777 81.93 50.7624 82.2002 50.9316C82.3564 51.0293 82.5339 51.2002 82.7324 51.4443V48.8027H83.5771V56H82.7861V55.2725C82.5811 55.5947 82.3385 55.8275 82.0586 55.9707C81.7786 56.1139 81.458 56.1855 81.0967 56.1855C80.514 56.1855 80.0094 55.9414 79.583 55.4531C79.1566 54.9616 78.9434 54.3089 78.9434 53.4951C78.9434 52.7334 79.137 52.0742 79.5244 51.5176C79.915 50.9577 80.4717 50.6777 81.1943 50.6777ZM85.5547 54.6084C85.5547 54.8623 85.6475 55.0625 85.833 55.209C86.0186 55.3555 86.2383 55.4287 86.4922 55.4287C86.8014 55.4287 87.1009 55.3571 87.3906 55.2139C87.8789 54.9762 88.123 54.5872 88.123 54.0469V53.3389C88.0156 53.4072 87.8773 53.4642 87.708 53.5098C87.5387 53.5553 87.3727 53.5879 87.21 53.6074L86.6777 53.6758C86.3587 53.7181 86.1195 53.7848 85.96 53.876C85.6898 54.029 85.5547 54.2731 85.5547 54.6084ZM87.6836 52.8311C87.8854 52.805 88.0205 52.7204 88.0889 52.5771C88.1279 52.499 88.1475 52.3867 88.1475 52.2402C88.1475 51.9408 88.04 51.7243 87.8252 51.5908C87.6136 51.4541 87.3092 51.3857 86.9121 51.3857C86.4531 51.3857 86.1276 51.5094 85.9355 51.7568C85.8281 51.8936 85.7581 52.097 85.7256 52.3672H84.9053C84.9215 51.7227 85.1299 51.2751 85.5303 51.0244C85.9339 50.7705 86.401 50.6436 86.9316 50.6436C87.5469 50.6436 88.0465 50.7607 88.4307 50.9951C88.8115 51.2295 89.002 51.5941 89.002 52.0889V55.1016C89.002 55.1927 89.0199 55.266 89.0557 55.3213C89.0947 55.3766 89.1745 55.4043 89.2949 55.4043C89.334 55.4043 89.3779 55.4027 89.4268 55.3994C89.4756 55.3929 89.5277 55.3848 89.583 55.375V56.0244C89.4463 56.0635 89.3421 56.0879 89.2705 56.0977C89.1989 56.1074 89.1012 56.1123 88.9775 56.1123C88.6748 56.1123 88.4551 56.0049 88.3184 55.79C88.2467 55.6761 88.1963 55.515 88.167 55.3066C87.988 55.541 87.7308 55.7445 87.3955 55.917C87.0602 56.0895 86.6908 56.1758 86.2871 56.1758C85.8021 56.1758 85.4049 56.0293 85.0957 55.7363C84.7897 55.4401 84.6367 55.0706 84.6367 54.6279C84.6367 54.1429 84.7881 53.7669 85.0908 53.5C85.3936 53.2331 85.7907 53.0687 86.2822 53.0068L87.6836 52.8311ZM90.623 49.3105H91.5117V50.7705H92.3467V51.4883H91.5117V54.9014C91.5117 55.0837 91.5736 55.2057 91.6973 55.2676C91.7656 55.3034 91.8796 55.3213 92.0391 55.3213C92.0814 55.3213 92.127 55.3213 92.1758 55.3213C92.2246 55.318 92.2816 55.3132 92.3467 55.3066V56C92.2458 56.0293 92.14 56.0505 92.0293 56.0635C91.9219 56.0765 91.8047 56.083 91.6777 56.083C91.2676 56.083 90.9893 55.9788 90.8428 55.7705C90.6963 55.5589 90.623 55.2855 90.623 54.9502V51.4883H89.915V50.7705H90.623V49.3105ZM95.3057 55.4336C95.8883 55.4336 96.2871 55.2139 96.502 54.7744C96.7201 54.3317 96.8291 53.8402 96.8291 53.2998C96.8291 52.8115 96.751 52.4144 96.5947 52.1084C96.3473 51.6266 95.9209 51.3857 95.3154 51.3857C94.7783 51.3857 94.3877 51.5908 94.1436 52.001C93.8994 52.4111 93.7773 52.9059 93.7773 53.4854C93.7773 54.042 93.8994 54.5059 94.1436 54.877C94.3877 55.248 94.7751 55.4336 95.3057 55.4336ZM95.3398 50.6191C96.0137 50.6191 96.5833 50.8438 97.0488 51.293C97.5143 51.7422 97.7471 52.403 97.7471 53.2754C97.7471 54.1185 97.542 54.8151 97.1318 55.3652C96.7217 55.9154 96.0853 56.1904 95.2227 56.1904C94.5033 56.1904 93.932 55.9479 93.5088 55.4629C93.0856 54.9746 92.874 54.3203 92.874 53.5C92.874 52.6211 93.097 51.9212 93.543 51.4004C93.9889 50.8796 94.5879 50.6191 95.3398 50.6191ZM98.7773 48.8271H99.6221V52.9922L101.878 50.7705H103.001L100.999 52.7285L103.113 56H101.99L100.359 53.3633L99.6221 54.0371V56H98.7773V48.8271Z" fill="#07185F"/>
<path d="M131.762 48.8271H132.709V52.3232L136.205 48.8271H137.548L134.564 51.7178L137.631 56H136.366L133.856 52.4014L132.709 53.5V56H131.762V48.8271ZM140.492 50.6533C140.863 50.6533 141.223 50.7412 141.571 50.917C141.92 51.0895 142.185 51.3141 142.367 51.5908C142.543 51.8545 142.66 52.1621 142.719 52.5137C142.771 52.7546 142.797 53.1387 142.797 53.666H138.964C138.98 54.1966 139.105 54.623 139.34 54.9453C139.574 55.2643 139.937 55.4238 140.429 55.4238C140.888 55.4238 141.254 55.2725 141.527 54.9697C141.684 54.7939 141.794 54.5905 141.859 54.3594H142.724C142.701 54.5514 142.624 54.7663 142.494 55.0039C142.367 55.2383 142.224 55.4303 142.064 55.5801C141.798 55.8405 141.467 56.0163 141.073 56.1074C140.862 56.1595 140.622 56.1855 140.355 56.1855C139.704 56.1855 139.153 55.9495 138.7 55.4775C138.248 55.0023 138.021 54.3382 138.021 53.4854C138.021 52.6455 138.249 51.9635 138.705 51.4395C139.161 50.9154 139.757 50.6533 140.492 50.6533ZM141.894 52.9678C141.858 52.5869 141.775 52.2826 141.645 52.0547C141.404 51.6315 141.002 51.4199 140.438 51.4199C140.035 51.4199 139.696 51.5664 139.423 51.8594C139.149 52.1491 139.005 52.5186 138.988 52.9678H141.894ZM141.508 48.666L140.204 50.0771H139.53L140.424 48.666H141.508ZM143.905 50.7705H144.74V51.6738C144.809 51.498 144.976 51.2848 145.243 51.0342C145.51 50.7803 145.818 50.6533 146.166 50.6533C146.182 50.6533 146.21 50.6549 146.249 50.6582C146.288 50.6615 146.355 50.668 146.449 50.6777V51.6055C146.397 51.5957 146.348 51.5892 146.303 51.5859C146.26 51.5827 146.213 51.5811 146.161 51.5811C145.718 51.5811 145.378 51.7243 145.141 52.0107C144.903 52.2939 144.784 52.6211 144.784 52.9922V56H143.905V50.7705ZM147.768 53.4463C147.768 54.0062 147.886 54.4749 148.124 54.8525C148.362 55.2301 148.743 55.4189 149.267 55.4189C149.674 55.4189 150.007 55.2448 150.268 54.8965C150.531 54.5449 150.663 54.042 150.663 53.3877C150.663 52.7269 150.528 52.2386 150.258 51.9229C149.988 51.6038 149.654 51.4443 149.257 51.4443C148.814 51.4443 148.454 51.6136 148.178 51.9521C147.904 52.2907 147.768 52.7887 147.768 53.4463ZM149.091 50.6777C149.491 50.6777 149.826 50.7624 150.097 50.9316C150.253 51.0293 150.43 51.2002 150.629 51.4443V48.8027H151.474V56H150.683V55.2725C150.478 55.5947 150.235 55.8275 149.955 55.9707C149.675 56.1139 149.354 56.1855 148.993 56.1855C148.41 56.1855 147.906 55.9414 147.479 55.4531C147.053 54.9616 146.84 54.3089 146.84 53.4951C146.84 52.7334 147.034 52.0742 147.421 51.5176C147.812 50.9577 148.368 50.6777 149.091 50.6777ZM154.853 55.4336C155.435 55.4336 155.834 55.2139 156.049 54.7744C156.267 54.3317 156.376 53.8402 156.376 53.2998C156.376 52.8115 156.298 52.4144 156.142 52.1084C155.894 51.6266 155.468 51.3857 154.862 51.3857C154.325 51.3857 153.935 51.5908 153.69 52.001C153.446 52.4111 153.324 52.9059 153.324 53.4854C153.324 54.042 153.446 54.5059 153.69 54.877C153.935 55.248 154.322 55.4336 154.853 55.4336ZM154.887 50.6191C155.561 50.6191 156.13 50.8438 156.596 51.293C157.061 51.7422 157.294 52.403 157.294 53.2754C157.294 54.1185 157.089 54.8151 156.679 55.3652C156.269 55.9154 155.632 56.1904 154.77 56.1904C154.05 56.1904 153.479 55.9479 153.056 55.4629C152.632 54.9746 152.421 54.3203 152.421 53.5C152.421 52.6211 152.644 51.9212 153.09 51.4004C153.536 50.8796 154.135 50.6191 154.887 50.6191ZM155.766 48.5684H156.811L155.717 49.9893H155.097L155.766 48.5684ZM154.14 48.5684H155.194L154.086 49.9893H153.471L154.14 48.5684ZM158.622 50.7949H159.516V56H158.622V50.7949ZM160.18 48.666L158.876 50.0771H158.202L159.096 48.666H160.18ZM161.557 50.7705L162.953 55.0283L164.413 50.7705H165.375L163.402 56H162.465L160.536 50.7705H161.557Z" fill="#787D90"/>
<path d="M191.981 48.8271H192.963V56H191.981V48.8271ZM194.984 53.4463C194.984 54.0062 195.103 54.4749 195.341 54.8525C195.578 55.2301 195.959 55.4189 196.483 55.4189C196.89 55.4189 197.224 55.2448 197.484 54.8965C197.748 54.5449 197.88 54.042 197.88 53.3877C197.88 52.7269 197.745 52.2386 197.475 51.9229C197.204 51.6038 196.871 51.4443 196.474 51.4443C196.031 51.4443 195.671 51.6136 195.395 51.9521C195.121 52.2907 194.984 52.7887 194.984 53.4463ZM196.308 50.6777C196.708 50.6777 197.043 50.7624 197.313 50.9316C197.47 51.0293 197.647 51.2002 197.846 51.4443V48.8027H198.69V56H197.899V55.2725C197.694 55.5947 197.452 55.8275 197.172 55.9707C196.892 56.1139 196.571 56.1855 196.21 56.1855C195.627 56.1855 195.123 55.9414 194.696 55.4531C194.27 54.9616 194.057 54.3089 194.057 53.4951C194.057 52.7334 194.25 52.0742 194.638 51.5176C195.028 50.9577 195.585 50.6777 196.308 50.6777ZM202.069 55.4336C202.652 55.4336 203.051 55.2139 203.266 54.7744C203.484 54.3317 203.593 53.8402 203.593 53.2998C203.593 52.8115 203.515 52.4144 203.358 52.1084C203.111 51.6266 202.685 51.3857 202.079 51.3857C201.542 51.3857 201.151 51.5908 200.907 52.001C200.663 52.4111 200.541 52.9059 200.541 53.4854C200.541 54.042 200.663 54.5059 200.907 54.877C201.151 55.248 201.539 55.4336 202.069 55.4336ZM202.104 50.6191C202.777 50.6191 203.347 50.8438 203.812 51.293C204.278 51.7422 204.511 52.403 204.511 53.2754C204.511 54.1185 204.306 54.8151 203.896 55.3652C203.485 55.9154 202.849 56.1904 201.986 56.1904C201.267 56.1904 200.696 55.9479 200.272 55.4629C199.849 54.9746 199.638 54.3203 199.638 53.5C199.638 52.6211 199.861 51.9212 200.307 51.4004C200.753 50.8796 201.352 50.6191 202.104 50.6191ZM202.982 48.5684H204.027L202.934 49.9893H202.313L202.982 48.5684ZM201.356 48.5684H202.411L201.303 49.9893H200.688L201.356 48.5684ZM207.768 55.4092C208.178 55.4092 208.518 55.2383 208.788 54.8965C209.062 54.5514 209.198 54.0371 209.198 53.3535C209.198 52.9368 209.138 52.5788 209.018 52.2793C208.79 51.7031 208.373 51.415 207.768 51.415C207.159 51.415 206.742 51.7194 206.518 52.3281C206.397 52.6536 206.337 53.0671 206.337 53.5684C206.337 53.972 206.397 54.3154 206.518 54.5986C206.745 55.139 207.162 55.4092 207.768 55.4092ZM205.492 50.7949H206.347V51.4883C206.522 51.2507 206.715 51.0667 206.923 50.9365C207.219 50.7412 207.567 50.6436 207.968 50.6436C208.56 50.6436 209.063 50.8714 209.477 51.3271C209.89 51.7796 210.097 52.4274 210.097 53.2705C210.097 54.4098 209.799 55.2236 209.203 55.7119C208.826 56.0212 208.386 56.1758 207.885 56.1758C207.491 56.1758 207.16 56.0895 206.894 55.917C206.737 55.8193 206.563 55.6517 206.371 55.4141V58.085H205.492V50.7949ZM213.202 55.4336C213.785 55.4336 214.184 55.2139 214.398 54.7744C214.617 54.3317 214.726 53.8402 214.726 53.2998C214.726 52.8115 214.647 52.4144 214.491 52.1084C214.244 51.6266 213.817 51.3857 213.212 51.3857C212.675 51.3857 212.284 51.5908 212.04 52.001C211.796 52.4111 211.674 52.9059 211.674 53.4854C211.674 54.042 211.796 54.5059 212.04 54.877C212.284 55.248 212.672 55.4336 213.202 55.4336ZM213.236 50.6191C213.91 50.6191 214.48 50.8438 214.945 51.293C215.411 51.7422 215.644 52.403 215.644 53.2754C215.644 54.1185 215.438 54.8151 215.028 55.3652C214.618 55.9154 213.982 56.1904 213.119 56.1904C212.4 56.1904 211.828 55.9479 211.405 55.4629C210.982 54.9746 210.771 54.3203 210.771 53.5C210.771 52.6211 210.993 51.9212 211.439 51.4004C211.885 50.8796 212.484 50.6191 213.236 50.6191ZM216.693 50.7705H217.528V51.5127C217.776 51.2067 218.038 50.987 218.314 50.8535C218.591 50.7201 218.899 50.6533 219.237 50.6533C219.979 50.6533 220.481 50.9121 220.741 51.4297C220.884 51.7129 220.956 52.1182 220.956 52.6455V56H220.062V52.7041C220.062 52.3851 220.015 52.1279 219.921 51.9326C219.765 51.6071 219.481 51.4443 219.071 51.4443C218.863 51.4443 218.692 51.4655 218.559 51.5078C218.318 51.5794 218.106 51.7227 217.924 51.9375C217.777 52.11 217.681 52.2891 217.636 52.4746C217.593 52.6569 217.572 52.9189 217.572 53.2607V56H216.693V50.7705ZM222.436 49.3105H223.324V50.7705H224.159V51.4883H223.324V54.9014C223.324 55.0837 223.386 55.2057 223.51 55.2676C223.578 55.3034 223.692 55.3213 223.852 55.3213C223.894 55.3213 223.939 55.3213 223.988 55.3213C224.037 55.318 224.094 55.3132 224.159 55.3066V56C224.058 56.0293 223.952 56.0505 223.842 56.0635C223.734 56.0765 223.617 56.083 223.49 56.083C223.08 56.083 222.802 55.9788 222.655 55.7705C222.509 55.5589 222.436 55.2855 222.436 54.9502V51.4883H221.728V50.7705H222.436V49.3105Z" fill="#787D90"/>
<path d="M252.854 48.8271H257.83V49.7061H253.826V51.8838H257.347V52.7383H253.826V56H252.854V48.8271ZM258.758 50.7949H259.651V56H258.758V50.7949ZM258.758 48.8271H259.651V49.8232H258.758V48.8271ZM260.594 55.3066L263.694 51.5566H260.823V50.7705H264.876V51.4883L261.795 55.2139H264.969V56H260.594V55.3066ZM268.162 50.6533C268.533 50.6533 268.893 50.7412 269.241 50.917C269.59 51.0895 269.855 51.3141 270.037 51.5908C270.213 51.8545 270.33 52.1621 270.389 52.5137C270.441 52.7546 270.467 53.1387 270.467 53.666H266.634C266.65 54.1966 266.775 54.623 267.01 54.9453C267.244 55.2643 267.607 55.4238 268.099 55.4238C268.558 55.4238 268.924 55.2725 269.197 54.9697C269.354 54.7939 269.464 54.5905 269.529 54.3594H270.394C270.371 54.5514 270.294 54.7663 270.164 55.0039C270.037 55.2383 269.894 55.4303 269.734 55.5801C269.467 55.8405 269.137 56.0163 268.743 56.1074C268.532 56.1595 268.292 56.1855 268.025 56.1855C267.374 56.1855 266.823 55.9495 266.37 55.4775C265.918 55.0023 265.691 54.3382 265.691 53.4854C265.691 52.6455 265.919 51.9635 266.375 51.4395C266.831 50.9154 267.426 50.6533 268.162 50.6533ZM269.563 52.9678C269.528 52.5869 269.445 52.2826 269.314 52.0547C269.074 51.6315 268.672 51.4199 268.108 51.4199C267.705 51.4199 267.366 51.5664 267.093 51.8594C266.819 52.1491 266.674 52.5186 266.658 52.9678H269.563ZM271.727 49.3105H272.615V50.7705H273.45V51.4883H272.615V54.9014C272.615 55.0837 272.677 55.2057 272.801 55.2676C272.869 55.3034 272.983 55.3213 273.143 55.3213C273.185 55.3213 273.23 55.3213 273.279 55.3213C273.328 55.318 273.385 55.3132 273.45 55.3066V56C273.349 56.0293 273.243 56.0505 273.133 56.0635C273.025 56.0765 272.908 56.083 272.781 56.083C272.371 56.083 272.093 55.9788 271.946 55.7705C271.8 55.5589 271.727 55.2855 271.727 54.9502V51.4883H271.019V50.7705H271.727V49.3105ZM276.512 50.6533C276.883 50.6533 277.243 50.7412 277.591 50.917C277.939 51.0895 278.204 51.3141 278.387 51.5908C278.562 51.8545 278.68 52.1621 278.738 52.5137C278.79 52.7546 278.816 53.1387 278.816 53.666H274.983C275 54.1966 275.125 54.623 275.359 54.9453C275.594 55.2643 275.957 55.4238 276.448 55.4238C276.907 55.4238 277.273 55.2725 277.547 54.9697C277.703 54.7939 277.814 54.5905 277.879 54.3594H278.743C278.72 54.5514 278.644 54.7663 278.514 55.0039C278.387 55.2383 278.243 55.4303 278.084 55.5801C277.817 55.8405 277.487 56.0163 277.093 56.1074C276.881 56.1595 276.642 56.1855 276.375 56.1855C275.724 56.1855 275.172 55.9495 274.72 55.4775C274.267 55.0023 274.041 54.3382 274.041 53.4854C274.041 52.6455 274.269 51.9635 274.725 51.4395C275.18 50.9154 275.776 50.6533 276.512 50.6533ZM277.913 52.9678C277.877 52.5869 277.794 52.2826 277.664 52.0547C277.423 51.6315 277.021 51.4199 276.458 51.4199C276.054 51.4199 275.716 51.5664 275.442 51.8594C275.169 52.1491 275.024 52.5186 275.008 52.9678H277.913ZM277.527 48.666L276.224 50.0771H275.55L276.443 48.666H277.527ZM280.423 54.3594C280.449 54.6523 280.522 54.877 280.643 55.0332C280.864 55.3164 281.248 55.458 281.795 55.458C282.12 55.458 282.407 55.388 282.654 55.248C282.902 55.1048 283.025 54.8851 283.025 54.5889C283.025 54.3643 282.926 54.1934 282.728 54.0762C282.601 54.0046 282.35 53.9215 281.976 53.8271L281.277 53.6514C280.831 53.5407 280.503 53.417 280.291 53.2803C279.913 53.0426 279.725 52.7139 279.725 52.2939C279.725 51.7992 279.902 51.3988 280.257 51.0928C280.615 50.7868 281.095 50.6338 281.697 50.6338C282.485 50.6338 283.053 50.8649 283.401 51.3271C283.619 51.6201 283.725 51.9359 283.719 52.2744H282.889C282.872 52.0758 282.802 51.8952 282.679 51.7324C282.477 51.5013 282.127 51.3857 281.629 51.3857C281.297 51.3857 281.045 51.4492 280.872 51.5762C280.703 51.7031 280.618 51.8708 280.618 52.0791C280.618 52.307 280.73 52.4893 280.955 52.626C281.085 52.7074 281.277 52.779 281.531 52.8408L282.112 52.9824C282.744 53.1354 283.167 53.2835 283.382 53.4268C283.724 53.6514 283.895 54.0046 283.895 54.4863C283.895 54.9518 283.717 55.3538 283.362 55.6924C283.011 56.0309 282.474 56.2002 281.751 56.2002C280.973 56.2002 280.421 56.0244 280.096 55.6729C279.773 55.318 279.601 54.8802 279.578 54.3594H280.423Z" fill="#787D90"/>
<line x1="28" y1="19.5" x2="88" y2="19.5" stroke="#07185F"/>
<line x1="88" y1="19.5" x2="148" y2="19.5" stroke="#787D90"/>
<line x1="148" y1="19.5" x2="208" y2="19.5" stroke="#787D90"/>
<line x1="208" y1="19.5" x2="268" y2="19.5" stroke="#787D90"/>
<circle cx="28" cy="20" r="19.5" fill="#ECF0FD" stroke="#07185F"/>
<circle cx="88" cy="20" r="19.5" fill="#ECF0FD" stroke="#07185F"/>
<circle cx="148" cy="20" r="19.5" fill="white" stroke="#787D90"/>
<circle cx="208" cy="20" r="19.5" fill="white" stroke="#787D90"/>
<circle cx="268" cy="20" r="19.5" fill="white" stroke="#787D90"/>
<path d="M24.6809 18.5581V17.2319C25.2961 17.2046 25.7268 17.1636 25.9729 17.1089C26.3648 17.0223 26.6838 16.8491 26.9299 16.5894C27.0985 16.4116 27.2261 16.1746 27.3127 15.8784C27.3629 15.7007 27.3879 15.5685 27.3879 15.4819H29.008V25.394H27.012V18.5581H24.6809Z" fill="#07185F"/>
<path d="M84.1477 25.394C84.1659 24.6831 84.3186 24.0337 84.6057 23.4458C84.8837 22.785 85.54 22.0854 86.5745 21.3472C87.4722 20.7046 88.0533 20.2443 88.3176 19.9663C88.7232 19.5334 88.926 19.0594 88.926 18.5444C88.926 18.1252 88.8098 17.7765 88.5774 17.4985C88.345 17.2205 88.0123 17.0815 87.5793 17.0815C86.9869 17.0815 86.5836 17.3026 86.3694 17.7446C86.2463 17.9998 86.1734 18.4054 86.1506 18.9614H84.2571C84.289 18.1183 84.4416 17.437 84.7151 16.9175C85.2346 15.9285 86.1575 15.4341 87.4836 15.4341C88.5318 15.4341 89.3658 15.7257 89.9856 16.3091C90.6054 16.8879 90.9153 17.6558 90.9153 18.6128C90.9153 19.3465 90.6965 19.9982 90.259 20.5679C89.9719 20.9461 89.5002 21.3677 88.844 21.8325L88.0647 22.3862C87.5771 22.7326 87.2421 22.9832 87.0598 23.1382C86.8821 23.2931 86.7317 23.4731 86.6086 23.6782H90.9358V25.394H84.1477Z" fill="#07185F"/>
<path d="M147.347 25.6606C146.189 25.6606 145.349 25.3439 144.824 24.7104C144.305 24.0724 144.045 23.2977 144.045 22.3862H145.33C145.385 23.0197 145.503 23.48 145.686 23.7671C146.005 24.2821 146.581 24.5396 147.415 24.5396C148.062 24.5396 148.582 24.3664 148.974 24.02C149.366 23.6737 149.562 23.2271 149.562 22.6802C149.562 22.0057 149.354 21.534 148.94 21.2651C148.53 20.9963 147.958 20.8618 147.224 20.8618C147.142 20.8618 147.058 20.8641 146.971 20.8687C146.889 20.8687 146.805 20.8709 146.718 20.8755V19.7886C146.846 19.8022 146.953 19.8114 147.039 19.8159C147.126 19.8205 147.219 19.8228 147.32 19.8228C147.78 19.8228 148.158 19.7498 148.454 19.604C148.974 19.3488 149.234 18.8931 149.234 18.2368C149.234 17.7492 149.06 17.3732 148.714 17.1089C148.368 16.8446 147.964 16.7124 147.504 16.7124C146.684 16.7124 146.116 16.9858 145.802 17.5327C145.629 17.8335 145.531 18.2619 145.508 18.8179H144.291C144.291 18.0887 144.437 17.4689 144.729 16.9585C145.23 16.047 146.112 15.5913 147.374 15.5913C148.372 15.5913 149.145 15.8146 149.692 16.2612C150.239 16.7033 150.512 17.3459 150.512 18.189C150.512 18.7905 150.35 19.2782 150.027 19.6519C149.826 19.8843 149.566 20.0666 149.247 20.1987C149.762 20.34 150.163 20.6134 150.45 21.019C150.742 21.4201 150.888 21.9123 150.888 22.4956C150.888 23.4299 150.58 24.1909 149.965 24.7788C149.35 25.3667 148.477 25.6606 147.347 25.6606Z" fill="#787D90"/>
<path d="M208.338 21.9282V17.4917L205.2 21.9282H208.338ZM208.359 25.394V23.0015H204.066V21.7983L208.55 15.5776H209.589V21.9282H211.031V23.0015H209.589V25.394H208.359Z" fill="#787D90"/>
<path d="M265.44 22.8989C265.522 23.6007 265.848 24.0861 266.417 24.355C266.709 24.4917 267.046 24.5601 267.429 24.5601C268.158 24.5601 268.698 24.3276 269.049 23.8628C269.4 23.3979 269.575 22.883 269.575 22.3179C269.575 21.6343 269.366 21.1056 268.947 20.7319C268.532 20.3582 268.033 20.1714 267.449 20.1714C267.026 20.1714 266.661 20.2534 266.356 20.4175C266.055 20.5815 265.797 20.8094 265.583 21.1011L264.517 21.0396L265.262 15.769H270.348V16.9585H266.185L265.768 19.6792C265.996 19.506 266.212 19.3761 266.417 19.2896C266.782 19.1392 267.203 19.064 267.682 19.064C268.58 19.064 269.341 19.3534 269.965 19.9321C270.589 20.5109 270.902 21.2446 270.902 22.1333C270.902 23.0584 270.614 23.8742 270.04 24.5806C269.471 25.2869 268.559 25.6401 267.306 25.6401C266.508 25.6401 265.802 25.4168 265.187 24.9702C264.576 24.519 264.234 23.8286 264.161 22.8989H265.44Z" fill="#787D90"/>
</svg>
