<svg width="126" height="141" viewBox="0 0 126 141" fill="none" xmlns="http://www.w3.org/2000/svg">
<circle cx="63" cy="70.0559" r="63" fill="#8B99F3"/>
<path d="M98.2686 32.3278V48.2017C98.2682 48.3484 98.2098 48.489 98.1061 48.5927C98.0024 48.6964 97.8619 48.7548 97.7153 48.7552H97.3215V131.448C97.3213 133.736 96.4125 135.931 94.7949 137.549C93.1772 139.167 90.9832 140.076 88.6955 140.076H37.0391C35.9065 140.076 34.785 139.853 33.7386 139.419C32.6923 138.985 31.7415 138.35 30.9408 137.549C30.14 136.747 29.5048 135.796 29.0716 134.749C28.6383 133.703 28.4154 132.581 28.4156 131.448V51.6554H28.1305C28.027 51.6556 27.9277 51.6147 27.8544 51.5418C27.781 51.4688 27.7395 51.3698 27.739 51.2663V42.2321C27.739 42.1807 27.7492 42.1298 27.7688 42.0823C27.7885 42.0348 27.8173 41.9916 27.8537 41.9552C27.89 41.9189 27.9332 41.89 27.9807 41.8704C28.0282 41.8507 28.0791 41.8406 28.1305 41.8406H28.4156V38.4376H28.1281C28.0195 38.4372 27.9155 38.3937 27.8389 38.3167C27.7624 38.2397 27.7195 38.1354 27.7197 38.0268V29.1158C27.72 29.0076 27.7631 28.9039 27.8396 28.8273C27.9161 28.7508 28.0198 28.7077 28.1281 28.7074H28.4156V24.0622H28.1232C28.0756 24.0623 28.0285 24.0529 27.9845 24.0347C27.9405 24.0165 27.9005 23.9898 27.8668 23.9562C27.8331 23.9225 27.8064 23.8825 27.7882 23.8385C27.7701 23.7945 27.7607 23.7473 27.7608 23.6997V18.837C27.7606 18.7405 27.7986 18.6479 27.8666 18.5795C27.9345 18.5111 28.0268 18.4724 28.1232 18.472H28.4156V8.62575C28.4157 6.33809 29.3243 4.14414 30.9415 2.52652C32.5587 0.908891 34.7521 8.26821e-05 37.0391 0H88.6955C90.9829 -1.09829e-05 93.1765 0.90869 94.7941 2.52626C96.4117 4.14384 97.3208 6.33783 97.3215 8.62575V31.7744H97.7153C97.8619 31.7748 98.0024 31.8332 98.1061 31.9369C98.2098 32.0406 98.2682 32.1812 98.2686 32.3278Z" fill="#434551"/>
<path d="M65.3557 4.42456H56.9618C56.6226 4.42456 56.3477 4.69961 56.3477 5.0389V5.76459C56.3477 6.10388 56.6226 6.37893 56.9618 6.37893H65.3557C65.6949 6.37893 65.9699 6.10388 65.9699 5.76459V5.0389C65.9699 4.69961 65.6949 4.42456 65.3557 4.42456Z" fill="#E6E8EC"/>
<path d="M93.1904 10.3321V132.163C93.1897 133.615 92.6128 135.006 91.5865 136.033C90.5603 137.059 89.1686 137.635 87.7176 137.635H38.2696C37.5508 137.636 36.8388 137.496 36.1744 137.221C35.51 136.947 34.9063 136.544 34.3979 136.035C33.8895 135.527 33.4863 134.923 33.2116 134.259C32.9369 133.594 32.7959 132.882 32.7969 132.163V10.3321C32.7968 9.6132 32.9384 8.90134 33.2134 8.23717C33.4884 7.573 33.8915 6.96952 34.3997 6.46119C34.9079 5.95286 35.5113 5.54964 36.1753 5.27455C36.8393 4.99945 37.5509 4.85788 38.2696 4.85791H45.6705V5.80773C45.6705 7.00317 46.1453 8.14965 46.9904 8.99496C47.8355 9.84026 48.9816 10.3152 50.1768 10.3152H75.3248C76.5199 10.3152 77.6661 9.84027 78.5112 8.99496C79.3563 8.14966 79.8311 7.00318 79.8311 5.80773V4.85791H87.7176C88.4364 4.85768 89.1481 4.99911 89.8122 5.27413C90.4763 5.54915 91.0797 5.95237 91.5879 6.46074C92.0962 6.96911 92.4993 7.57267 92.7742 8.23693C93.0492 8.9012 93.1906 9.61314 93.1904 10.3321Z" fill="white"/>
<circle cx="63.2" cy="70.2" r="25.2" fill="#07185F"/>
<path d="M49 61H76V61.5938M49 61V80H76V61.5938M49 61L62.8 74.6562L76 61.5938" stroke="white" stroke-width="2" stroke-linejoin="round"/>
</svg>
